  0
SECTION
  2
HEADER
  9
$ACADVER
  1
AC1024
  9
$ACADMAINTVER
 70
6
  9
$DWGCODEPAGE
  3
ANSI_1252
  9
$LASTSAVEDBY
  1
ezdxf
  9
$INSBASE
 10
0.0
 20
0.0
 30
0.0
  9
$EXTMIN
 10
1e+20
 20
1e+20
 30
1e+20
  9
$EXTMAX
 10
-1e+20
 20
-1e+20
 30
-1e+20
  9
$LIMMIN
 10
0.0
 20
0.0
  9
$LIMMAX
 10
420.0
 20
297.0
  9
$ORTHOMODE
 70
0
  9
$REGENMODE
 70
1
  9
$FILLMODE
 70
1
  9
$QTEXTMODE
 70
0
  9
$MIRRTEXT
 70
1
  9
$LTSCALE
 40
1.0
  9
$ATTMODE
 70
1
  9
$TEXTSIZE
 40
2.5
  9
$TRACEWID
 40
1.0
  9
$TEXTSTYLE
  7
Standard
  9
$CLAYER
  8
0
  9
$CELTYPE
  6
ByLayer
  9
$CECOLOR
 62
256
  9
$CELTSCALE
 40
1.0
  9
$DISPSILH
 70
0
  9
$DIMSCALE
 40
1.0
  9
$DIMASZ
 40
2.5
  9
$DIMEXO
 40
0.625
  9
$DIMDLI
 40
3.75
  9
$DIMRND
 40
0.0
  9
$DIMDLE
 40
0.0
  9
$DIMEXE
 40
1.25
  9
$DIMTP
 40
0.0
  9
$DIMTM
 40
0.0
  9
$DIMTXT
 40
2.5
  9
$DIMCEN
 40
2.5
  9
$DIMTSZ
 40
0.0
  9
$DIMTOL
 70
0
  9
$DIMLIM
 70
0
  9
$DIMTIH
 70
0
  9
$DIMTOH
 70
0
  9
$DIMSE1
 70
0
  9
$DIMSE2
 70
0
  9
$DIMTAD
 70
1
  9
$DIMZIN
 70
8
  9
$DIMBLK
  1

  9
$DIMASO
 70
1
  9
$DIMSHO
 70
1
  9
$DIMPOST
  1

  9
$DIMAPOST
  1

  9
$DIMALT
 70
0
  9
$DIMALTD
 70
3
  9
$DIMALTF
 40
0.03937007874
  9
$DIMLFAC
 40
1.0
  9
$DIMTOFL
 70
1
  9
$DIMTVP
 40
0.0
  9
$DIMTIX
 70
0
  9
$DIMSOXD
 70
0
  9
$DIMSAH
 70
0
  9
$DIMBLK1
  1

  9
$DIMBLK2
  1

  9
$DIMSTYLE
  2
ISO-25
  9
$DIMCLRD
 70
0
  9
$DIMCLRE
 70
0
  9
$DIMCLRT
 70
0
  9
$DIMTFAC
 40
1.0
  9
$DIMGAP
 40
0.625
  9
$DIMJUST
 70
0
  9
$DIMSD1
 70
0
  9
$DIMSD2
 70
0
  9
$DIMTOLJ
 70
0
  9
$DIMTZIN
 70
8
  9
$DIMALTZ
 70
0
  9
$DIMALTTZ
 70
0
  9
$DIMUPT
 70
0
  9
$DIMDEC
 70
2
  9
$DIMTDEC
 70
2
  9
$DIMALTU
 70
2
  9
$DIMALTTD
 70
3
  9
$DIMTXSTY
  7
Standard
  9
$DIMAUNIT
 70
0
  9
$DIMADEC
 70
0
  9
$DIMALTRND
 40
0.0
  9
$DIMAZIN
 70
0
  9
$DIMDSEP
 70
44
  9
$DIMATFIT
 70
3
  9
$DIMFRAC
 70
0
  9
$DIMLDRBLK
  1

  9
$DIMLUNIT
 70
2
  9
$DIMLWD
 70
-2
  9
$DIMLWE
 70
-2
  9
$DIMTMOVE
 70
0
  9
$DIMFXL
 40
1.0
  9
$DIMFXLON
 70
0
  9
$DIMJOGANG
 40
0.785398163397
  9
$DIMTFILL
 70
0
  9
$DIMTFILLCLR
 70
0
  9
$DIMARCSYM
 70
0
  9
$DIMLTYPE
  6

  9
$DIMLTEX1
  6

  9
$DIMLTEX2
  6

  9
$DIMTXTDIRECTION
 70
0
  9
$LUNITS
 70
2
  9
$LUPREC
 70
4
  9
$SKETCHINC
 40
1.0
  9
$FILLETRAD
 40
10.0
  9
$AUNITS
 70
0
  9
$AUPREC
 70
2
  9
$MENU
  1
.
  9
$ELEVATION
 40
0.0
  9
$PELEVATION
 40
0.0
  9
$THICKNESS
 40
0.0
  9
$LIMCHECK
 70
0
  9
$CHAMFERA
 40
0.0
  9
$CHAMFERB
 40
0.0
  9
$CHAMFERC
 40
0.0
  9
$CHAMFERD
 40
0.0
  9
$SKPOLY
 70
0
  9
$TDCREATE
 40
2461096.614490741
  9
$TDUCREATE
 40
2458532.153996898
  9
$TDUPDATE
 40
2461096.614490741
  9
$TDUUPDATE
 40
2458532.1544311
  9
$TDINDWG
 40
0.0
  9
$TDUSRTIMER
 40
0.0
  9
$USRTIMER
 70
1
  9
$ANGBASE
 50
0.0
  9
$ANGDIR
 70
0
  9
$PDMODE
 70
0
  9
$PDSIZE
 40
0.0
  9
$PLINEWID
 40
0.0
  9
$SPLFRAME
 70
0
  9
$SPLINETYPE
 70
6
  9
$SPLINESEGS
 70
8
  9
$HANDSEED
  5
43
  9
$SURFTAB1
 70
6
  9
$SURFTAB2
 70
6
  9
$SURFTYPE
 70
6
  9
$SURFU
 70
6
  9
$SURFV
 70
6
  9
$UCSBASE
  2

  9
$UCSNAME
  2

  9
$UCSORG
 10
0.0
 20
0.0
 30
0.0
  9
$UCSXDIR
 10
1.0
 20
0.0
 30
0.0
  9
$UCSYDIR
 10
0.0
 20
1.0
 30
0.0
  9
$UCSORTHOREF
  2

  9
$UCSORTHOVIEW
 70
0
  9
$UCSORGTOP
 10
0.0
 20
0.0
 30
0.0
  9
$UCSORGBOTTOM
 10
0.0
 20
0.0
 30
0.0
  9
$UCSORGLEFT
 10
0.0
 20
0.0
 30
0.0
  9
$UCSORGRIGHT
 10
0.0
 20
0.0
 30
0.0
  9
$UCSORGFRONT
 10
0.0
 20
0.0
 30
0.0
  9
$UCSORGBACK
 10
0.0
 20
0.0
 30
0.0
  9
$PUCSBASE
  2

  9
$PUCSNAME
  2

  9
$PUCSORG
 10
0.0
 20
0.0
 30
0.0
  9
$PUCSXDIR
 10
1.0
 20
0.0
 30
0.0
  9
$PUCSYDIR
 10
0.0
 20
1.0
 30
0.0
  9
$PUCSORTHOREF
  2

  9
$PUCSORTHOVIEW
 70
0
  9
$PUCSORGTOP
 10
0.0
 20
0.0
 30
0.0
  9
$PUCSORGBOTTOM
 10
0.0
 20
0.0
 30
0.0
  9
$PUCSORGLEFT
 10
0.0
 20
0.0
 30
0.0
  9
$PUCSORGRIGHT
 10
0.0
 20
0.0
 30
0.0
  9
$PUCSORGFRONT
 10
0.0
 20
0.0
 30
0.0
  9
$PUCSORGBACK
 10
0.0
 20
0.0
 30
0.0
  9
$USERI1
 70
0
  9
$USERI2
 70
0
  9
$USERI3
 70
0
  9
$USERI4
 70
0
  9
$USERI5
 70
0
  9
$USERR1
 40
0.0
  9
$USERR2
 40
0.0
  9
$USERR3
 40
0.0
  9
$USERR4
 40
0.0
  9
$USERR5
 40
0.0
  9
$WORLDVIEW
 70
1
  9
$SHADEDGE
 70
3
  9
$SHADEDIF
 70
70
  9
$TILEMODE
 70
1
  9
$MAXACTVP
 70
64
  9
$PINSBASE
 10
0.0
 20
0.0
 30
0.0
  9
$PLIMCHECK
 70
0
  9
$PEXTMIN
 10
1e+20
 20
1e+20
 30
1e+20
  9
$PEXTMAX
 10
-1e+20
 20
-1e+20
 30
-1e+20
  9
$PLIMMIN
 10
0.0
 20
0.0
  9
$PLIMMAX
 10
420.0
 20
297.0
  9
$UNITMODE
 70
0
  9
$VISRETAIN
 70
1
  9
$PLINEGEN
 70
0
  9
$PSLTSCALE
 70
1
  9
$TREEDEPTH
 70
3020
  9
$CMLSTYLE
  2
Standard
  9
$CMLJUST
 70
0
  9
$CMLSCALE
 40
20.0
  9
$PROXYGRAPHICS
 70
1
  9
$MEASUREMENT
 70
1
  9
$CELWEIGHT
370
-1
  9
$ENDCAPS
280
0
  9
$JOINSTYLE
280
0
  9
$LWDISPLAY
290
0
  9
$INSUNITS
 70
6
  9
$HYPERLINKBASE
  1

  9
$STYLESHEET
  1

  9
$XEDIT
290
1
  9
$CEPSNTYPE
380
0
  9
$PSTYLEMODE
290
1
  9
$FINGERPRINTGUID
  2
{E0A13E46-530C-4C50-8079-B63C9E6283A9}
  9
$VERSIONGUID
  2
{D7E8D6F9-22E7-4C13-9CB5-80C9FD536D73}
  9
$EXTNAMES
290
1
  9
$PSVPSCALE
 40
0.0
  9
$OLESTARTUP
290
0
  9
$SORTENTS
280
127
  9
$INDEXCTL
280
0
  9
$HIDETEXT
280
1
  9
$XCLIPFRAME
280
1
  9
$HALOGAP
280
0
  9
$OBSCOLOR
 70
257
  9
$OBSLTYPE
280
0
  9
$INTERSECTIONDISPLAY
280
0
  9
$INTERSECTIONCOLOR
 70
257
  9
$DIMASSOC
280
2
  9
$PROJECTNAME
  1

  9
$CAMERADISPLAY
290
0
  9
$LENSLENGTH
 40
50.0
  9
$CAMERAHEIGHT
 40
0.0
  9
$STEPSPERSEC
 40
24.0
  9
$STEPSIZE
 40
100.0
  9
$3DDWFPREC
 40
2.0
  9
$PSOLWIDTH
 40
0.005
  9
$PSOLHEIGHT
 40
0.08
  9
$LOFTANG1
 40
1.570796326795
  9
$LOFTANG2
 40
1.570796326795
  9
$LOFTMAG1
 40
0.0
  9
$LOFTMAG2
 40
0.0
  9
$LOFTPARAM
 70
7
  9
$LOFTNORMALS
280
1
  9
$LATITUDE
 40
37.795
  9
$LONGITUDE
 40
-122.394
  9
$NORTHDIRECTION
 40
0.0
  9
$TIMEZONE
 70
-8000
  9
$LIGHTGLYPHDISPLAY
280
1
  9
$TILEMODELIGHTSYNCH
280
1
  9
$CMATERIAL
347
20
  9
$SOLIDHIST
280
0
  9
$SHOWHIST
280
1
  9
$DWFFRAME
280
2
  9
$DGNFRAME
280
2
  9
$REALWORLDSCALE
290
1
  9
$INTERFERECOLOR
 62
256
  9
$CSHADOW
280
0
  9
$SHADOWPLANELOCATION
 40
0.0
  0
ENDSEC
  0
SECTION
  2
CLASSES
  0
CLASS
  1
ACDBDICTIONARYWDFLT
  2
AcDbDictionaryWithDefault
  3
ObjectDBX Classes
 90
0
 91
0
280
0
281
0
  0
CLASS
  1
SUN
  2
AcDbSun
  3
SCENEOE
 90
1153
 91
0
280
0
281
0
  0
CLASS
  1
VISUALSTYLE
  2
AcDbVisualStyle
  3
ObjectDBX Classes
 90
4095
 91
0
280
0
281
0
  0
CLASS
  1
MATERIAL
  2
AcDbMaterial
  3
ObjectDBX Classes
 90
1153
 91
0
280
0
281
0
  0
CLASS
  1
SCALE
  2
AcDbScale
  3
ObjectDBX Classes
 90
1153
 91
0
280
0
281
0
  0
CLASS
  1
TABLESTYLE
  2
AcDbTableStyle
  3
ObjectDBX Classes
 90
4095
 91
0
280
0
281
0
  0
CLASS
  1
MLEADERSTYLE
  2
AcDbMLeaderStyle
  3
ACDB_MLEADERSTYLE_CLASS
 90
4095
 91
0
280
0
281
0
  0
CLASS
  1
DICTIONARYVAR
  2
AcDbDictionaryVar
  3
ObjectDBX Classes
 90
0
 91
0
280
0
281
0
  0
CLASS
  1
CELLSTYLEMAP
  2
AcDbCellStyleMap
  3
ObjectDBX Classes
 90
1152
 91
0
280
0
281
0
  0
CLASS
  1
MENTALRAYRENDERSETTINGS
  2
AcDbMentalRayRenderSettings
  3
SCENEOE
 90
1024
 91
0
280
0
281
0
  0
CLASS
  1
ACDBDETAILVIEWSTYLE
  2
AcDbDetailViewStyle
  3
ObjectDBX Classes
 90
1025
 91
0
280
0
281
0
  0
CLASS
  1
ACDBSECTIONVIEWSTYLE
  2
AcDbSectionViewStyle
  3
ObjectDBX Classes
 90
1025
 91
0
280
0
281
0
  0
CLASS
  1
RASTERVARIABLES
  2
AcDbRasterVariables
  3
ISM
 90
0
 91
0
280
0
281
0
  0
CLASS
  1
ACDBPLACEHOLDER
  2
AcDbPlaceHolder
  3
ObjectDBX Classes
 90
0
 91
0
280
0
281
0
  0
CLASS
  1
LAYOUT
  2
AcDbLayout
  3
ObjectDBX Classes
 90
0
 91
0
280
0
281
0
  0
ENDSEC
  0
SECTION
  2
TABLES
  0
TABLE
  2
VPORT
  5
8
330
0
100
AcDbSymbolTable
 70
1
  0
VPORT
  5
23
330
8
100
AcDbSymbolTableRecord
100
AcDbViewportTableRecord
  2
*Active
 70
0
 10
0.0
 20
0.0
 11
1.0
 21
1.0
 12
0.0
 22
0.0
 13
0.0
 23
0.0
 14
0.5
 24
0.5
 15
0.5
 25
0.5
 16
0.0
 26
0.0
 36
1.0
 17
0.0
 27
0.0
 37
0.0
 40
1000.0
 41
1.34
 42
50.0
 43
0.0
 44
0.0
 50
0.0
 51
0.0
 71
0
 72
1000
 73
1
 74
3
 75
0
 76
0
 77
0
 78
0
281
0
 65
0
146
0.0
  0
ENDTAB
  0
TABLE
  2
LTYPE
  5
2
330
0
100
AcDbSymbolTable
 70
3
  0
LTYPE
  5
24
330
2
100
AcDbSymbolTableRecord
100
AcDbLinetypeTableRecord
  2
ByBlock
 70
0
  3

 72
65
 73
0
 40
0.0
  0
LTYPE
  5
25
330
2
100
AcDbSymbolTableRecord
100
AcDbLinetypeTableRecord
  2
ByLayer
 70
0
  3

 72
65
 73
0
 40
0.0
  0
LTYPE
  5
26
330
2
100
AcDbSymbolTableRecord
100
AcDbLinetypeTableRecord
  2
Continuous
 70
0
  3

 72
65
 73
0
 40
0.0
  0
ENDTAB
  0
TABLE
  2
LAYER
  5
1
330
0
100
AcDbSymbolTable
 70
2
  0
LAYER
  5
27
330
1
100
AcDbSymbolTableRecord
100
AcDbLayerTableRecord
  2
0
 70
0
 62
7
  6
Continuous
370
-3
390
13
347
21
  0
LAYER
  5
28
330
1
100
AcDbSymbolTableRecord
100
AcDbLayerTableRecord
  2
Defpoints
 70
0
 62
7
  6
Continuous
290
0
370
-3
390
13
347
21
  0
ENDTAB
  0
TABLE
  2
STYLE
  5
5
330
0
100
AcDbSymbolTable
 70
1
  0
STYLE
  5
29
330
5
100
AcDbSymbolTableRecord
100
AcDbTextStyleTableRecord
  2
Standard
 70
0
 40
0.0
 41
1.0
 50
0.0
 71
0
 42
2.5
  3
txt
  4

  0
ENDTAB
  0
TABLE
  2
VIEW
  5
7
330
0
100
AcDbSymbolTable
 70
0
  0
ENDTAB
  0
TABLE
  2
UCS
  5
6
330
0
100
AcDbSymbolTable
 70
0
  0
ENDTAB
  0
TABLE
  2
APPID
  5
3
330
0
100
AcDbSymbolTable
 70
3
  0
APPID
  5
2A
330
3
100
AcDbSymbolTableRecord
100
AcDbRegAppTableRecord
  2
ACAD
 70
0
  0
APPID
  5
40
330
3
100
AcDbSymbolTableRecord
100
AcDbRegAppTableRecord
  2
HATCHBACKGROUNDCOLOR
 70
0
  0
APPID
  5
41
330
3
100
AcDbSymbolTableRecord
100
AcDbRegAppTableRecord
  2
EZDXF
 70
0
  0
ENDTAB
  0
TABLE
  2
DIMSTYLE
  5
4
330
0
100
AcDbSymbolTable
 70
1
100
AcDbDimStyleTable
  0
DIMSTYLE
105
2B
330
4
100
AcDbSymbolTableRecord
100
AcDbDimStyleTableRecord
  2
Standard
 70
0
 40
1.0
 41
2.5
 42
0.625
 43
3.75
 44
1.25
 45
0.0
 46
0.0
 47
0.0
 48
0.0
 49
2.5
140
2.5
141
2.5
142
0.0
143
0.03937007874
144
1.0
145
0.0
146
1.0
147
0.625
148
0.0
 69
0
 70
0
 71
0
 72
0
 73
0
 74
0
 75
0
 76
0
 77
1
 78
8
 79
3
170
0
171
3
172
1
173
0
174
0
175
0
176
0
177
0
178
0
179
2
271
2
272
2
273
2
274
3
275
0
276
0
277
2
278
44
279
0
280
0
281
0
282
0
283
0
284
8
285
0
286
0
288
0
289
3
290
0
371
-2
372
-2
  0
ENDTAB
  0
TABLE
  2
BLOCK_RECORD
  5
9
330
0
100
AcDbSymbolTable
 70
2
  0
BLOCK_RECORD
  5
17
330
9
100
AcDbSymbolTableRecord
100
AcDbBlockTableRecord
  2
*Model_Space
340
1A
 70
0
280
1
281
0
  0
BLOCK_RECORD
  5
1B
330
9
100
AcDbSymbolTableRecord
100
AcDbBlockTableRecord
  2
*Paper_Space
340
1E
 70
0
280
1
281
0
  0
ENDTAB
  0
ENDSEC
  0
SECTION
  2
BLOCKS
  0
BLOCK
  5
18
330
17
100
AcDbEntity
  8
0
100
AcDbBlockBegin
  2
*Model_Space
 70
0
 10
0.0
 20
0.0
 30
0.0
  3
*Model_Space
  1

  0
ENDBLK
  5
19
330
17
100
AcDbEntity
  8
0
100
AcDbBlockEnd
  0
BLOCK
  5
1C
330
1B
100
AcDbEntity
  8
0
100
AcDbBlockBegin
  2
*Paper_Space
 70
0
 10
0.0
 20
0.0
 30
0.0
  3
*Paper_Space
  1

  0
ENDBLK
  5
1D
330
1B
100
AcDbEntity
  8
0
100
AcDbBlockEnd
  0
ENDSEC
  0
SECTION
  2
ENTITIES
  0
LWPOLYLINE
  5
2F
330
17
100
AcDbEntity
  8
0
100
AcDbPolyline
 90
5
 70
1
 10
0.0
 20
0.0
 10
100.0
 20
0.0
 10
100.0
 20
50.0
 10
0.0
 20
50.0
 10
0.0
 20
0.0
  0
LWPOLYLINE
  5
30
330
17
100
AcDbEntity
  8
0
100
AcDbPolyline
 90
102
 70
1
 10
20.0
 20
5.0
 10
20.1256269611876
 20
5.8
 10
20.251033529996946
 20
6.6
 10
20.375999700692912
 20
7.4
 10
20.500306240148305
 20
8.2
 10
20.62373507245328
 20
9.0
 10
20.746069661494566
 20
9.8
 10
20.867095390833416
 20
10.600000000000001
 10
20.98659994021575
 20
11.4
 10
21.104373658054033
 20
12.2
 10
21.2202099292274
 20
13.0
 10
21.333905537554784
 20
13.8
 10
21.445261022305147
 20
14.6
 10
21.55408102811939
 20
15.4
 10
21.66017464773003
 20
16.200000000000003
 10
21.76335575687742
 20
17.0
 10
21.86344334083493
 20
17.8
 10
21.960261811970316
 20
18.6
 10
22.053641317786067
 20
19.4
 10
22.14341803889841
 20
20.2
 10
22.229434476432182
 20
21.0
 10
22.311539728327368
 20
21.8
 10
22.38958975407259
 20
22.6
 10
22.463447627401113
 20
23.400000000000002
 10
22.532983776506043
 20
24.2
 10
22.598076211353316
 20
25.0
 10
22.658610737693643
 20
25.8
 10
22.71448115739806
 20
26.6
 10
22.7655894547655
 20
27.400000000000002
 10
22.811845968475673
 20
28.2
 10
22.85316954888546
 20
29.0
 10
22.889487700392973
 20
29.8
 10
22.92073670861948
 20
30.6
 10
22.946861752186066
 20
31.400000000000002
 10
22.967816998888964
 20
32.2
 10
22.983565686104818
 20
33.0
 10
22.994080185284815
 20
33.8
 10
22.999342050424538
 20
34.6
 10
22.999342050424538
 20
35.4
 10
22.994080185284815
 20
36.2
 10
22.98356568610482
 20
37.0
 10
22.967816998888964
 20
37.8
 10
22.946861752186066
 20
38.6
 10
22.92073670861948
 20
39.4
 10
22.889487700392973
 20
40.2
 10
22.85316954888546
 20
41.0
 10
22.811845968475673
 20
41.800000000000004
 10
22.765589454765504
 20
42.599999999999994
 10
22.71448115739806
 20
43.4
 10
22.658610737693643
 20
44.2
 10
22.598076211353316
 20
45.0
 10
23.843076211353317
 20
45.0
 10
23.903610737693644
 20
44.2
 10
23.95948115739806
 20
43.4
 10
24.010589454765505
 20
42.599999999999994
 10
24.056845968475674
 20
41.800000000000004
 10
24.098169548885462
 20
41.0
 10
24.134487700392974
 20
40.2
 10
24.16573670861948
 20
39.4
 10
24.191861752186067
 20
38.6
 10
24.212816998888965
 20
37.8
 10
24.228565686104822
 20
37.0
 10
24.239080185284816
 20
36.2
 10
24.24434205042454
 20
35.4
 10
24.24434205042454
 20
34.6
 10
24.239080185284816
 20
33.8
 10
24.22856568610482
 20
33.0
 10
24.212816998888965
 20
32.2
 10
24.191861752186067
 20
31.400000000000002
 10
24.16573670861948
 20
30.6
 10
24.134487700392974
 20
29.8
 10
24.098169548885462
 20
29.0
 10
24.056845968475674
 20
28.2
 10
24.0105894547655
 20
27.400000000000002
 10
23.95948115739806
 20
26.6
 10
23.903610737693644
 20
25.8
 10
23.843076211353317
 20
25.0
 10
23.777983776506044
 20
24.2
 10
23.708447627401114
 20
23.400000000000002
 10
23.63458975407259
 20
22.6
 10
23.55653972832737
 20
21.8
 10
23.474434476432183
 20
21.0
 10
23.38841803889841
 20
20.2
 10
23.298641317786068
 20
19.4
 10
23.205261811970317
 20
18.6
 10
23.10844334083493
 20
17.8
 10
23.00835575687742
 20
17.0
 10
22.905174647730032
 20
16.200000000000003
 10
22.799081028119392
 20
15.4
 10
22.690261022305148
 20
14.6
 10
22.578905537554785
 20
13.8
 10
22.465209929227402
 20
13.0
 10
22.349373658054034
 20
12.2
 10
22.23159994021575
 20
11.4
 10
22.112095390833417
 20
10.600000000000001
 10
21.991069661494567
 20
9.8
 10
21.86873507245328
 20
9.0
 10
21.745306240148306
 20
8.2
 10
21.620999700692913
 20
7.4
 10
21.496033529996946
 20
6.6
 10
21.3706269611876
 20
5.8
 10
21.245
 20
5.0
  0
LWPOLYLINE
  5
31
330
17
100
AcDbEntity
  8
0
100
AcDbPolyline
 90
102
 70
1
 10
21.189
 20
5.0
 10
21.3146269611876
 20
5.8
 10
21.440033529996946
 20
6.6
 10
21.564999700692912
 20
7.4
 10
21.689306240148305
 20
8.2
 10
21.81273507245328
 20
9.0
 10
21.935069661494566
 20
9.8
 10
22.056095390833416
 20
10.600000000000001
 10
22.17559994021575
 20
11.4
 10
22.293373658054033
 20
12.2
 10
22.4092099292274
 20
13.0
 10
22.522905537554784
 20
13.8
 10
22.634261022305147
 20
14.6
 10
22.74308102811939
 20
15.4
 10
22.84917464773003
 20
16.200000000000003
 10
22.95235575687742
 20
17.0
 10
23.05244334083493
 20
17.8
 10
23.149261811970316
 20
18.6
 10
23.242641317786067
 20
19.4
 10
23.33241803889841
 20
20.2
 10
23.418434476432182
 20
21.0
 10
23.500539728327368
 20
21.8
 10
23.57858975407259
 20
22.6
 10
23.652447627401113
 20
23.400000000000002
 10
23.721983776506043
 20
24.2
 10
23.787076211353316
 20
25.0
 10
23.847610737693643
 20
25.8
 10
23.90348115739806
 20
26.6
 10
23.9545894547655
 20
27.400000000000002
 10
24.000845968475673
 20
28.2
 10
24.04216954888546
 20
29.0
 10
24.078487700392973
 20
29.8
 10
24.10973670861948
 20
30.6
 10
24.135861752186067
 20
31.400000000000002
 10
24.156816998888964
 20
32.2
 10
24.172565686104818
 20
33.0
 10
24.183080185284815
 20
33.8
 10
24.188342050424538
 20
34.6
 10
24.188342050424538
 20
35.4
 10
24.183080185284815
 20
36.2
 10
24.17256568610482
 20
37.0
 10
24.156816998888964
 20
37.8
 10
24.135861752186067
 20
38.6
 10
24.10973670861948
 20
39.4
 10
24.078487700392973
 20
40.2
 10
24.04216954888546
 20
41.0
 10
24.000845968475673
 20
41.800000000000004
 10
23.954589454765504
 20
42.599999999999994
 10
23.90348115739806
 20
43.4
 10
23.847610737693643
 20
44.2
 10
23.787076211353316
 20
45.0
 10
25.032076211353317
 20
45.0
 10
25.092610737693644
 20
44.2
 10
25.14848115739806
 20
43.4
 10
25.199589454765505
 20
42.599999999999994
 10
25.245845968475674
 20
41.800000000000004
 10
25.287169548885462
 20
41.0
 10
25.323487700392974
 20
40.2
 10
25.35473670861948
 20
39.4
 10
25.380861752186068
 20
38.6
 10
25.401816998888965
 20
37.8
 10
25.417565686104822
 20
37.0
 10
25.428080185284816
 20
36.2
 10
25.43334205042454
 20
35.4
 10
25.43334205042454
 20
34.6
 10
25.428080185284816
 20
33.8
 10
25.41756568610482
 20
33.0
 10
25.401816998888965
 20
32.2
 10
25.380861752186068
 20
31.400000000000002
 10
25.35473670861948
 20
30.6
 10
25.323487700392974
 20
29.8
 10
25.287169548885462
 20
29.0
 10
25.245845968475674
 20
28.2
 10
25.1995894547655
 20
27.400000000000002
 10
25.14848115739806
 20
26.6
 10
25.092610737693644
 20
25.8
 10
25.032076211353317
 20
25.0
 10
24.966983776506044
 20
24.2
 10
24.897447627401114
 20
23.400000000000002
 10
24.82358975407259
 20
22.6
 10
24.74553972832737
 20
21.8
 10
24.663434476432183
 20
21.0
 10
24.57741803889841
 20
20.2
 10
24.487641317786068
 20
19.4
 10
24.394261811970317
 20
18.6
 10
24.29744334083493
 20
17.8
 10
24.19735575687742
 20
17.0
 10
24.094174647730032
 20
16.200000000000003
 10
23.988081028119392
 20
15.4
 10
23.879261022305148
 20
14.6
 10
23.767905537554785
 20
13.8
 10
23.654209929227402
 20
13.0
 10
23.538373658054034
 20
12.2
 10
23.42059994021575
 20
11.4
 10
23.301095390833417
 20
10.600000000000001
 10
23.180069661494567
 20
9.8
 10
23.05773507245328
 20
9.0
 10
22.934306240148306
 20
8.2
 10
22.809999700692913
 20
7.4
 10
22.685033529996947
 20
6.6
 10
22.5596269611876
 20
5.8
 10
22.434
 20
5.0
  0
LWPOLYLINE
  5
32
330
17
100
AcDbEntity
  8
0
100
AcDbPolyline
 90
102
 70
1
 10
24.98
 20
5.0
 10
25.1056269611876
 20
5.8
 10
25.231033529996946
 20
6.6
 10
25.355999700692912
 20
7.4
 10
25.48030624014831
 20
8.2
 10
25.60373507245328
 20
9.0
 10
25.726069661494563
 20
9.8
 10
25.847095390833417
 20
10.600000000000001
 10
25.96659994021575
 20
11.4
 10
26.084373658054034
 20
12.2
 10
26.2002099292274
 20
13.0
 10
26.31390553755478
 20
13.8
 10
26.425261022305147
 20
14.6
 10
26.53408102811939
 20
15.4
 10
26.640174647730035
 20
16.200000000000003
 10
26.74335575687742
 20
17.0
 10
26.84344334083493
 20
17.8
 10
26.940261811970316
 20
18.6
 10
27.033641317786067
 20
19.4
 10
27.12341803889841
 20
20.2
 10
27.209434476432182
 20
21.0
 10
27.29153972832737
 20
21.8
 10
27.36958975407259
 20
22.6
 10
27.443447627401113
 20
23.400000000000002
 10
27.512983776506047
 20
24.2
 10
27.578076211353316
 20
25.0
 10
27.638610737693647
 20
25.8
 10
27.69448115739806
 20
26.6
 10
27.7455894547655
 20
27.400000000000002
 10
27.791845968475673
 20
28.2
 10
27.83316954888546
 20
29.0
 10
27.869487700392973
 20
29.8
 10
27.90073670861948
 20
30.6
 10
27.926861752186067
 20
31.400000000000002
 10
27.947816998888964
 20
32.2
 10
27.963565686104822
 20
33.0
 10
27.974080185284816
 20
33.8
 10
27.97934205042454
 20
34.6
 10
27.97934205042454
 20
35.4
 10
27.974080185284816
 20
36.2
 10
27.963565686104822
 20
37.0
 10
27.947816998888964
 20
37.8
 10
27.926861752186067
 20
38.6
 10
27.900736708619483
 20
39.4
 10
27.869487700392973
 20
40.2
 10
27.83316954888546
 20
41.0
 10
27.791845968475673
 20
41.800000000000004
 10
27.7455894547655
 20
42.599999999999994
 10
27.69448115739806
 20
43.4
 10
27.638610737693643
 20
44.2
 10
27.578076211353316
 20
45.0
 10
28.823076211353317
 20
45.0
 10
28.883610737693644
 20
44.2
 10
28.93948115739806
 20
43.4
 10
28.9905894547655
 20
42.599999999999994
 10
29.036845968475674
 20
41.800000000000004
 10
29.078169548885462
 20
41.0
 10
29.114487700392974
 20
40.2
 10
29.145736708619484
 20
39.4
 10
29.171861752186068
 20
38.6
 10
29.192816998888965
 20
37.8
 10
29.208565686104823
 20
37.0
 10
29.219080185284817
 20
36.2
 10
29.22434205042454
 20
35.4
 10
29.22434205042454
 20
34.6
 10
29.219080185284817
 20
33.8
 10
29.208565686104823
 20
33.0
 10
29.192816998888965
 20
32.2
 10
29.171861752186068
 20
31.400000000000002
 10
29.14573670861948
 20
30.6
 10
29.114487700392974
 20
29.8
 10
29.078169548885462
 20
29.0
 10
29.036845968475674
 20
28.2
 10
28.9905894547655
 20
27.400000000000002
 10
28.93948115739806
 20
26.6
 10
28.883610737693648
 20
25.8
 10
28.823076211353317
 20
25.0
 10
28.757983776506048
 20
24.2
 10
28.688447627401114
 20
23.400000000000002
 10
28.61458975407259
 20
22.6
 10
28.53653972832737
 20
21.8
 10
28.454434476432183
 20
21.0
 10
28.36841803889841
 20
20.2
 10
28.278641317786068
 20
19.4
 10
28.185261811970317
 20
18.6
 10
28.08844334083493
 20
17.8
 10
27.98835575687742
 20
17.0
 10
27.885174647730036
 20
16.200000000000003
 10
27.779081028119393
 20
15.4
 10
27.670261022305148
 20
14.6
 10
27.558905537554782
 20
13.8
 10
27.445209929227403
 20
13.0
 10
27.329373658054035
 20
12.2
 10
27.211599940215752
 20
11.4
 10
27.092095390833418
 20
10.600000000000001
 10
26.971069661494564
 20
9.8
 10
26.84873507245328
 20
9.0
 10
26.72530624014831
 20
8.2
 10
26.600999700692913
 20
7.4
 10
26.476033529996947
 20
6.6
 10
26.3506269611876
 20
5.8
 10
26.225
 20
5.0
  0
LWPOLYLINE
  5
33
330
17
100
AcDbEntity
  8
0
100
AcDbPolyline
 90
102
 70
1
 10
26.169
 20
5.0
 10
26.2946269611876
 20
5.8
 10
26.420033529996946
 20
6.6
 10
26.544999700692912
 20
7.4
 10
26.66930624014831
 20
8.2
 10
26.79273507245328
 20
9.0
 10
26.915069661494563
 20
9.8
 10
27.036095390833417
 20
10.600000000000001
 10
27.15559994021575
 20
11.4
 10
27.273373658054034
 20
12.2
 10
27.389209929227402
 20
13.0
 10
27.50290553755478
 20
13.8
 10
27.614261022305147
 20
14.6
 10
27.723081028119392
 20
15.4
 10
27.829174647730035
 20
16.200000000000003
 10
27.93235575687742
 20
17.0
 10
28.03244334083493
 20
17.8
 10
28.129261811970316
 20
18.6
 10
28.222641317786067
 20
19.4
 10
28.31241803889841
 20
20.2
 10
28.398434476432183
 20
21.0
 10
28.48053972832737
 20
21.8
 10
28.55858975407259
 20
22.6
 10
28.632447627401113
 20
23.400000000000002
 10
28.701983776506047
 20
24.2
 10
28.767076211353316
 20
25.0
 10
28.827610737693647
 20
25.8
 10
28.88348115739806
 20
26.6
 10
28.9345894547655
 20
27.400000000000002
 10
28.980845968475673
 20
28.2
 10
29.02216954888546
 20
29.0
 10
29.058487700392973
 20
29.8
 10
29.08973670861948
 20
30.6
 10
29.115861752186067
 20
31.400000000000002
 10
29.136816998888964
 20
32.2
 10
29.152565686104822
 20
33.0
 10
29.163080185284816
 20
33.8
 10
29.16834205042454
 20
34.6
 10
29.16834205042454
 20
35.4
 10
29.163080185284816
 20
36.2
 10
29.152565686104822
 20
37.0
 10
29.136816998888964
 20
37.8
 10
29.115861752186067
 20
38.6
 10
29.089736708619483
 20
39.4
 10
29.058487700392973
 20
40.2
 10
29.02216954888546
 20
41.0
 10
28.980845968475673
 20
41.800000000000004
 10
28.9345894547655
 20
42.599999999999994
 10
28.88348115739806
 20
43.4
 10
28.827610737693643
 20
44.2
 10
28.767076211353316
 20
45.0
 10
30.012076211353317
 20
45.0
 10
30.072610737693644
 20
44.2
 10
30.12848115739806
 20
43.4
 10
30.1795894547655
 20
42.599999999999994
 10
30.225845968475674
 20
41.800000000000004
 10
30.267169548885462
 20
41.0
 10
30.303487700392974
 20
40.2
 10
30.334736708619484
 20
39.4
 10
30.360861752186068
 20
38.6
 10
30.381816998888965
 20
37.8
 10
30.397565686104823
 20
37.0
 10
30.408080185284817
 20
36.2
 10
30.41334205042454
 20
35.4
 10
30.41334205042454
 20
34.6
 10
30.408080185284817
 20
33.8
 10
30.397565686104823
 20
33.0
 10
30.381816998888965
 20
32.2
 10
30.360861752186068
 20
31.400000000000002
 10
30.33473670861948
 20
30.6
 10
30.303487700392974
 20
29.8
 10
30.267169548885462
 20
29.0
 10
30.225845968475674
 20
28.2
 10
30.1795894547655
 20
27.400000000000002
 10
30.12848115739806
 20
26.6
 10
30.072610737693648
 20
25.8
 10
30.012076211353317
 20
25.0
 10
29.94698377650605
 20
24.2
 10
29.877447627401114
 20
23.400000000000002
 10
29.80358975407259
 20
22.6
 10
29.72553972832737
 20
21.8
 10
29.643434476432184
 20
21.0
 10
29.557418038898412
 20
20.2
 10
29.467641317786068
 20
19.4
 10
29.374261811970317
 20
18.6
 10
29.27744334083493
 20
17.8
 10
29.17735575687742
 20
17.0
 10
29.074174647730036
 20
16.200000000000003
 10
28.968081028119393
 20
15.4
 10
28.859261022305148
 20
14.6
 10
28.747905537554782
 20
13.8
 10
28.634209929227403
 20
13.0
 10
28.518373658054035
 20
12.2
 10
28.400599940215752
 20
11.4
 10
28.281095390833418
 20
10.600000000000001
 10
28.160069661494564
 20
9.8
 10
28.03773507245328
 20
9.0
 10
27.91430624014831
 20
8.2
 10
27.789999700692913
 20
7.4
 10
27.665033529996947
 20
6.6
 10
27.5396269611876
 20
5.8
 10
27.414
 20
5.0
  0
LWPOLYLINE
  5
34
330
17
100
AcDbEntity
  8
0
100
AcDbPolyline
 90
102
 70
1
 10
29.96
 20
5.0
 10
30.0856269611876
 20
5.8
 10
30.211033529996946
 20
6.6
 10
30.335999700692913
 20
7.4
 10
30.460306240148306
 20
8.2
 10
30.58373507245328
 20
9.0
 10
30.706069661494567
 20
9.8
 10
30.827095390833417
 20
10.600000000000001
 10
30.94659994021575
 20
11.4
 10
31.064373658054034
 20
12.2
 10
31.180209929227402
 20
13.0
 10
31.293905537554785
 20
13.8
 10
31.405261022305147
 20
14.6
 10
31.514081028119392
 20
15.4
 10
31.620174647730032
 20
16.200000000000003
 10
31.72335575687742
 20
17.0
 10
31.82344334083493
 20
17.8
 10
31.920261811970317
 20
18.6
 10
32.01364131778607
 20
19.4
 10
32.10341803889841
 20
20.2
 10
32.18943447643218
 20
21.0
 10
32.27153972832737
 20
21.8
 10
32.34958975407259
 20
22.6
 10
32.42344762740111
 20
23.400000000000002
 10
32.492983776506044
 20
24.2
 10
32.55807621135332
 20
25.0
 10
32.61861073769364
 20
25.8
 10
32.67448115739806
 20
26.6
 10
32.725589454765505
 20
27.400000000000002
 10
32.771845968475674
 20
28.2
 10
32.81316954888546
 20
29.0
 10
32.84948770039298
 20
29.8
 10
32.88073670861948
 20
30.6
 10
32.90686175218607
 20
31.400000000000002
 10
32.927816998888964
 20
32.2
 10
32.94356568610482
 20
33.0
 10
32.954080185284816
 20
33.8
 10
32.95934205042454
 20
34.6
 10
32.95934205042454
 20
35.4
 10
32.954080185284816
 20
36.2
 10
32.94356568610482
 20
37.0
 10
32.927816998888964
 20
37.8
 10
32.90686175218607
 20
38.6
 10
32.88073670861948
 20
39.4
 10
32.84948770039298
 20
40.2
 10
32.81316954888546
 20
41.0
 10
32.771845968475674
 20
41.800000000000004
 10
32.725589454765505
 20
42.599999999999994
 10
32.67448115739806
 20
43.4
 10
32.61861073769364
 20
44.2
 10
32.55807621135332
 20
45.0
 10
33.803076211353314
 20
45.0
 10
33.86361073769364
 20
44.2
 10
33.91948115739806
 20
43.4
 10
33.9705894547655
 20
42.599999999999994
 10
34.01684596847567
 20
41.800000000000004
 10
34.05816954888546
 20
41.0
 10
34.094487700392975
 20
40.2
 10
34.12573670861948
 20
39.4
 10
34.151861752186065
 20
38.6
 10
34.17281699888896
 20
37.8
 10
34.188565686104816
 20
37.0
 10
34.199080185284814
 20
36.2
 10
34.204342050424536
 20
35.4
 10
34.204342050424536
 20
34.6
 10
34.199080185284814
 20
33.8
 10
34.188565686104816
 20
33.0
 10
34.17281699888896
 20
32.2
 10
34.151861752186065
 20
31.400000000000002
 10
34.12573670861948
 20
30.6
 10
34.094487700392975
 20
29.8
 10
34.05816954888546
 20
29.0
 10
34.01684596847567
 20
28.2
 10
33.9705894547655
 20
27.400000000000002
 10
33.91948115739806
 20
26.6
 10
33.86361073769364
 20
25.8
 10
33.803076211353314
 20
25.0
 10
33.73798377650604
 20
24.2
 10
33.66844762740111
 20
23.400000000000002
 10
33.59458975407259
 20
22.6
 10
33.516539728327366
 20
21.8
 10
33.43443447643218
 20
21.0
 10
33.34841803889841
 20
20.2
 10
33.258641317786065
 20
19.4
 10
33.16526181197032
 20
18.6
 10
33.06844334083493
 20
17.8
 10
32.96835575687742
 20
17.0
 10
32.86517464773003
 20
16.200000000000003
 10
32.75908102811939
 20
15.4
 10
32.650261022305145
 20
14.6
 10
32.53890553755478
 20
13.8
 10
32.4252099292274
 20
13.0
 10
32.309373658054035
 20
12.2
 10
32.19159994021575
 20
11.4
 10
32.07209539083342
 20
10.600000000000001
 10
31.951069661494568
 20
9.8
 10
31.82873507245328
 20
9.0
 10
31.705306240148307
 20
8.2
 10
31.580999700692914
 20
7.4
 10
31.456033529996947
 20
6.6
 10
31.3306269611876
 20
5.8
 10
31.205000000000002
 20
5.0
  0
LWPOLYLINE
  5
35
330
17
100
AcDbEntity
  8
0
100
AcDbPolyline
 90
102
 70
1
 10
31.149
 20
5.0
 10
31.2746269611876
 20
5.8
 10
31.400033529996946
 20
6.6
 10
31.524999700692913
 20
7.4
 10
31.649306240148306
 20
8.2
 10
31.77273507245328
 20
9.0
 10
31.895069661494567
 20
9.8
 10
32.016095390833414
 20
10.600000000000001
 10
32.135599940215755
 20
11.4
 10
32.25337365805403
 20
12.2
 10
32.3692099292274
 20
13.0
 10
32.482905537554785
 20
13.8
 10
32.59426102230515
 20
14.6
 10
32.70308102811939
 20
15.4
 10
32.80917464773003
 20
16.200000000000003
 10
32.91235575687742
 20
17.0
 10
33.012443340834935
 20
17.8
 10
33.10926181197031
 20
18.6
 10
33.20264131778607
 20
19.4
 10
33.29241803889841
 20
20.2
 10
33.37843447643218
 20
21.0
 10
33.46053972832737
 20
21.8
 10
33.53858975407259
 20
22.6
 10
33.61244762740111
 20
23.400000000000002
 10
33.681983776506044
 20
24.2
 10
33.74707621135332
 20
25.0
 10
33.80761073769364
 20
25.8
 10
33.86348115739806
 20
26.6
 10
33.914589454765505
 20
27.400000000000002
 10
33.960845968475674
 20
28.2
 10
34.00216954888546
 20
29.0
 10
34.03848770039298
 20
29.8
 10
34.06973670861948
 20
30.6
 10
34.09586175218607
 20
31.400000000000002
 10
34.116816998888964
 20
32.2
 10
34.13256568610482
 20
33.0
 10
34.143080185284816
 20
33.8
 10
34.14834205042454
 20
34.6
 10
34.14834205042454
 20
35.4
 10
34.143080185284816
 20
36.2
 10
34.13256568610482
 20
37.0
 10
34.116816998888964
 20
37.8
 10
34.09586175218607
 20
38.6
 10
34.06973670861948
 20
39.4
 10
34.03848770039298
 20
40.2
 10
34.00216954888546
 20
41.0
 10
33.960845968475674
 20
41.800000000000004
 10
33.914589454765505
 20
42.599999999999994
 10
33.86348115739806
 20
43.4
 10
33.80761073769364
 20
44.2
 10
33.74707621135332
 20
45.0
 10
34.992076211353314
 20
45.0
 10
35.05261073769364
 20
44.2
 10
35.10848115739806
 20
43.4
 10
35.1595894547655
 20
42.599999999999994
 10
35.20584596847567
 20
41.800000000000004
 10
35.24716954888546
 20
41.0
 10
35.283487700392975
 20
40.2
 10
35.31473670861948
 20
39.4
 10
35.340861752186065
 20
38.6
 10
35.36181699888896
 20
37.8
 10
35.377565686104816
 20
37.0
 10
35.388080185284814
 20
36.2
 10
35.393342050424536
 20
35.4
 10
35.393342050424536
 20
34.6
 10
35.388080185284814
 20
33.8
 10
35.377565686104816
 20
33.0
 10
35.36181699888896
 20
32.2
 10
35.340861752186065
 20
31.400000000000002
 10
35.31473670861948
 20
30.6
 10
35.283487700392975
 20
29.8
 10
35.24716954888546
 20
29.0
 10
35.20584596847567
 20
28.2
 10
35.1595894547655
 20
27.400000000000002
 10
35.10848115739806
 20
26.6
 10
35.05261073769364
 20
25.8
 10
34.992076211353314
 20
25.0
 10
34.92698377650604
 20
24.2
 10
34.85744762740111
 20
23.400000000000002
 10
34.78358975407259
 20
22.6
 10
34.705539728327366
 20
21.8
 10
34.62343447643218
 20
21.0
 10
34.53741803889841
 20
20.2
 10
34.447641317786065
 20
19.4
 10
34.35426181197031
 20
18.6
 10
34.25744334083493
 20
17.8
 10
34.157355756877415
 20
17.0
 10
34.05417464773003
 20
16.200000000000003
 10
33.94808102811939
 20
15.4
 10
33.839261022305145
 20
14.6
 10
33.72790553755478
 20
13.8
 10
33.6142099292274
 20
13.0
 10
33.49837365805403
 20
12.2
 10
33.38059994021575
 20
11.4
 10
33.26109539083341
 20
10.600000000000001
 10
33.140069661494564
 20
9.8
 10
33.01773507245328
 20
9.0
 10
32.8943062401483
 20
8.2
 10
32.769999700692914
 20
7.4
 10
32.645033529996944
 20
6.6
 10
32.5196269611876
 20
5.8
 10
32.394
 20
5.0
  0
LWPOLYLINE
  5
36
330
17
100
AcDbEntity
  8
0
100
AcDbPolyline
 90
102
 70
1
 10
34.94
 20
5.0
 10
35.0656269611876
 20
5.8
 10
35.19103352999694
 20
6.6
 10
35.31599970069291
 20
7.4
 10
35.4403062401483
 20
8.2
 10
35.56373507245328
 20
9.0
 10
35.686069661494564
 20
9.8
 10
35.80709539083341
 20
10.600000000000001
 10
35.926599940215745
 20
11.4
 10
36.044373658054035
 20
12.2
 10
36.1602099292274
 20
13.0
 10
36.27390553755478
 20
13.8
 10
36.385261022305144
 20
14.6
 10
36.49408102811939
 20
15.4
 10
36.60017464773003
 20
16.200000000000003
 10
36.703355756877414
 20
17.0
 10
36.80344334083493
 20
17.8
 10
36.90026181197032
 20
18.6
 10
36.993641317786064
 20
19.4
 10
37.08341803889841
 20
20.2
 10
37.16943447643218
 20
21.0
 10
37.251539728327366
 20
21.8
 10
37.329589754072586
 20
22.6
 10
37.40344762740111
 20
23.400000000000002
 10
37.47298377650604
 20
24.2
 10
37.538076211353314
 20
25.0
 10
37.59861073769364
 20
25.8
 10
37.65448115739806
 20
26.6
 10
37.7055894547655
 20
27.400000000000002
 10
37.75184596847567
 20
28.2
 10
37.79316954888546
 20
29.0
 10
37.829487700392974
 20
29.8
 10
37.86073670861948
 20
30.6
 10
37.886861752186064
 20
31.400000000000002
 10
37.90781699888896
 20
32.2
 10
37.923565686104816
 20
33.0
 10
37.93408018528481
 20
33.8
 10
37.939342050424536
 20
34.6
 10
37.939342050424536
 20
35.4
 10
37.93408018528481
 20
36.2
 10
37.923565686104816
 20
37.0
 10
37.90781699888896
 20
37.8
 10
37.886861752186064
 20
38.6
 10
37.86073670861948
 20
39.4
 10
37.829487700392974
 20
40.2
 10
37.79316954888546
 20
41.0
 10
37.75184596847567
 20
41.800000000000004
 10
37.7055894547655
 20
42.599999999999994
 10
37.65448115739806
 20
43.4
 10
37.59861073769364
 20
44.2
 10
37.538076211353314
 20
45.0
 10
38.78307621135331
 20
45.0
 10
38.84361073769364
 20
44.2
 10
38.89948115739806
 20
43.4
 10
38.9505894547655
 20
42.599999999999994
 10
38.99684596847567
 20
41.800000000000004
 10
39.038169548885456
 20
41.0
 10
39.07448770039297
 20
40.2
 10
39.105736708619474
 20
39.4
 10
39.13186175218606
 20
38.6
 10
39.15281699888896
 20
37.8
 10
39.16856568610481
 20
37.0
 10
39.17908018528481
 20
36.2
 10
39.18434205042453
 20
35.4
 10
39.18434205042453
 20
34.6
 10
39.17908018528481
 20
33.8
 10
39.16856568610481
 20
33.0
 10
39.15281699888896
 20
32.2
 10
39.13186175218606
 20
31.400000000000002
 10
39.105736708619474
 20
30.6
 10
39.07448770039297
 20
29.8
 10
39.038169548885456
 20
29.0
 10
38.99684596847567
 20
28.2
 10
38.9505894547655
 20
27.400000000000002
 10
38.89948115739806
 20
26.6
 10
38.84361073769364
 20
25.8
 10
38.78307621135331
 20
25.0
 10
38.71798377650604
 20
24.2
 10
38.648447627401104
 20
23.400000000000002
 10
38.57458975407258
 20
22.6
 10
38.49653972832736
 20
21.8
 10
38.41443447643218
 20
21.0
 10
38.328418038898405
 20
20.2
 10
38.23864131778606
 20
19.4
 10
38.145261811970315
 20
18.6
 10
38.04844334083493
 20
17.8
 10
37.94835575687741
 20
17.0
 10
37.845174647730026
 20
16.200000000000003
 10
37.73908102811939
 20
15.4
 10
37.63026102230514
 20
14.6
 10
37.51890553755478
 20
13.8
 10
37.4052099292274
 20
13.0
 10
37.28937365805403
 20
12.2
 10
37.17159994021574
 20
11.4
 10
37.05209539083341
 20
10.600000000000001
 10
36.93106966149456
 20
9.8
 10
36.808735072453274
 20
9.0
 10
36.6853062401483
 20
8.2
 10
36.56099970069291
 20
7.4
 10
36.43603352999694
 20
6.6
 10
36.310626961187594
 20
5.8
 10
36.184999999999995
 20
5.0
  0
LWPOLYLINE
  5
37
330
17
100
AcDbEntity
  8
0
100
AcDbPolyline
 90
102
 70
1
 10
36.129
 20
5.0
 10
36.2546269611876
 20
5.8
 10
36.38003352999694
 20
6.6
 10
36.50499970069291
 20
7.4
 10
36.6293062401483
 20
8.2
 10
36.75273507245328
 20
9.0
 10
36.875069661494564
 20
9.8
 10
36.99609539083341
 20
10.600000000000001
 10
37.115599940215745
 20
11.4
 10
37.233373658054035
 20
12.2
 10
37.3492099292274
 20
13.0
 10
37.46290553755478
 20
13.8
 10
37.574261022305144
 20
14.6
 10
37.68308102811939
 20
15.4
 10
37.78917464773003
 20
16.200000000000003
 10
37.892355756877414
 20
17.0
 10
37.99244334083493
 20
17.8
 10
38.08926181197032
 20
18.6
 10
38.182641317786064
 20
19.4
 10
38.27241803889841
 20
20.2
 10
38.35843447643218
 20
21.0
 10
38.440539728327366
 20
21.8
 10
38.518589754072586
 20
22.6
 10
38.59244762740111
 20
23.400000000000002
 10
38.66198377650604
 20
24.2
 10
38.727076211353314
 20
25.0
 10
38.78761073769364
 20
25.8
 10
38.84348115739806
 20
26.6
 10
38.8945894547655
 20
27.400000000000002
 10
38.94084596847567
 20
28.2
 10
38.98216954888546
 20
29.0
 10
39.018487700392974
 20
29.8
 10
39.04973670861948
 20
30.6
 10
39.075861752186064
 20
31.400000000000002
 10
39.09681699888896
 20
32.2
 10
39.112565686104816
 20
33.0
 10
39.12308018528481
 20
33.8
 10
39.128342050424536
 20
34.6
 10
39.128342050424536
 20
35.4
 10
39.12308018528481
 20
36.2
 10
39.112565686104816
 20
37.0
 10
39.09681699888896
 20
37.8
 10
39.075861752186064
 20
38.6
 10
39.04973670861948
 20
39.4
 10
39.018487700392974
 20
40.2
 10
38.98216954888546
 20
41.0
 10
38.94084596847567
 20
41.800000000000004
 10
38.8945894547655
 20
42.599999999999994
 10
38.84348115739806
 20
43.4
 10
38.78761073769364
 20
44.2
 10
38.727076211353314
 20
45.0
 10
39.97207621135331
 20
45.0
 10
40.03261073769364
 20
44.2
 10
40.08848115739806
 20
43.4
 10
40.1395894547655
 20
42.599999999999994
 10
40.18584596847567
 20
41.800000000000004
 10
40.227169548885456
 20
41.0
 10
40.26348770039297
 20
40.2
 10
40.294736708619475
 20
39.4
 10
40.32086175218606
 20
38.6
 10
40.34181699888896
 20
37.8
 10
40.35756568610481
 20
37.0
 10
40.36808018528481
 20
36.2
 10
40.37334205042453
 20
35.4
 10
40.37334205042453
 20
34.6
 10
40.36808018528481
 20
33.8
 10
40.35756568610481
 20
33.0
 10
40.34181699888896
 20
32.2
 10
40.32086175218606
 20
31.400000000000002
 10
40.294736708619475
 20
30.6
 10
40.26348770039297
 20
29.8
 10
40.227169548885456
 20
29.0
 10
40.18584596847567
 20
28.2
 10
40.1395894547655
 20
27.400000000000002
 10
40.08848115739806
 20
26.6
 10
40.03261073769364
 20
25.8
 10
39.97207621135331
 20
25.0
 10
39.90698377650604
 20
24.2
 10
39.837447627401104
 20
23.400000000000002
 10
39.763589754072584
 20
22.6
 10
39.68553972832736
 20
21.8
 10
39.60343447643218
 20
21.0
 10
39.517418038898406
 20
20.2
 10
39.42764131778606
 20
19.4
 10
39.334261811970315
 20
18.6
 10
39.23744334083493
 20
17.8
 10
39.13735575687741
 20
17.0
 10
39.034174647730026
 20
16.200000000000003
 10
38.92808102811939
 20
15.4
 10
38.81926102230514
 20
14.6
 10
38.70790553755478
 20
13.8
 10
38.5942099292274
 20
13.0
 10
38.47837365805403
 20
12.2
 10
38.36059994021574
 20
11.4
 10
38.24109539083341
 20
10.600000000000001
 10
38.12006966149456
 20
9.8
 10
37.997735072453274
 20
9.0
 10
37.8743062401483
 20
8.2
 10
37.74999970069291
 20
7.4
 10
37.62503352999694
 20
6.6
 10
37.499626961187595
 20
5.8
 10
37.373999999999995
 20
5.0
  0
LWPOLYLINE
  5
38
330
17
100
AcDbEntity
  8
0
100
AcDbPolyline
 90
102
 70
1
 10
39.92
 20
5.0
 10
40.0456269611876
 20
5.8
 10
40.17103352999695
 20
6.6
 10
40.29599970069292
 20
7.4
 10
40.42030624014831
 20
8.2
 10
40.54373507245328
 20
9.0
 10
40.66606966149457
 20
9.8
 10
40.787095390833414
 20
10.600000000000001
 10
40.90659994021575
 20
11.4
 10
41.02437365805404
 20
12.2
 10
41.1402099292274
 20
13.0
 10
41.253905537554786
 20
13.8
 10
41.36526102230515
 20
14.6
 10
41.47408102811939
 20
15.4
 10
41.58017464773003
 20
16.200000000000003
 10
41.68335575687742
 20
17.0
 10
41.783443340834935
 20
17.8
 10
41.88026181197032
 20
18.6
 10
41.97364131778607
 20
19.4
 10
42.06341803889841
 20
20.2
 10
42.149434476432184
 20
21.0
 10
42.23153972832737
 20
21.8
 10
42.30958975407259
 20
22.6
 10
42.38344762740111
 20
23.400000000000002
 10
42.452983776506045
 20
24.2
 10
42.51807621135332
 20
25.0
 10
42.578610737693644
 20
25.8
 10
42.63448115739806
 20
26.6
 10
42.685589454765505
 20
27.400000000000002
 10
42.731845968475675
 20
28.2
 10
42.77316954888546
 20
29.0
 10
42.80948770039298
 20
29.8
 10
42.84073670861948
 20
30.6
 10
42.86686175218607
 20
31.400000000000002
 10
42.887816998888965
 20
32.2
 10
42.90356568610482
 20
33.0
 10
42.91408018528482
 20
33.8
 10
42.91934205042454
 20
34.6
 10
42.91934205042454
 20
35.4
 10
42.91408018528482
 20
36.2
 10
42.90356568610482
 20
37.0
 10
42.887816998888965
 20
37.8
 10
42.86686175218607
 20
38.6
 10
42.84073670861948
 20
39.4
 10
42.80948770039298
 20
40.2
 10
42.77316954888546
 20
41.0
 10
42.731845968475675
 20
41.800000000000004
 10
42.685589454765505
 20
42.599999999999994
 10
42.63448115739806
 20
43.4
 10
42.578610737693644
 20
44.2
 10
42.51807621135332
 20
45.0
 10
43.763076211353315
 20
45.0
 10
43.82361073769364
 20
44.2
 10
43.87948115739806
 20
43.4
 10
43.9305894547655
 20
42.599999999999994
 10
43.97684596847567
 20
41.800000000000004
 10
44.01816954888546
 20
41.0
 10
44.054487700392976
 20
40.2
 10
44.08573670861948
 20
39.4
 10
44.111861752186066
 20
38.6
 10
44.13281699888896
 20
37.8
 10
44.14856568610482
 20
37.0
 10
44.159080185284814
 20
36.2
 10
44.16434205042454
 20
35.4
 10
44.16434205042454
 20
34.6
 10
44.159080185284814
 20
33.8
 10
44.14856568610482
 20
33.0
 10
44.13281699888896
 20
32.2
 10
44.111861752186066
 20
31.400000000000002
 10
44.08573670861948
 20
30.6
 10
44.054487700392976
 20
29.8
 10
44.01816954888546
 20
29.0
 10
43.97684596847567
 20
28.2
 10
43.9305894547655
 20
27.400000000000002
 10
43.87948115739806
 20
26.6
 10
43.82361073769364
 20
25.8
 10
43.763076211353315
 20
25.0
 10
43.69798377650604
 20
24.2
 10
43.62844762740111
 20
23.400000000000002
 10
43.55458975407259
 20
22.6
 10
43.47653972832737
 20
21.8
 10
43.39443447643218
 20
21.0
 10
43.30841803889841
 20
20.2
 10
43.218641317786066
 20
19.4
 10
43.12526181197032
 20
18.6
 10
43.02844334083493
 20
17.8
 10
42.928355756877416
 20
17.0
 10
42.82517464773003
 20
16.200000000000003
 10
42.71908102811939
 20
15.4
 10
42.610261022305146
 20
14.6
 10
42.49890553755478
 20
13.8
 10
42.3852099292274
 20
13.0
 10
42.269373658054036
 20
12.2
 10
42.151599940215746
 20
11.4
 10
42.03209539083341
 20
10.600000000000001
 10
41.911069661494565
 20
9.8
 10
41.78873507245328
 20
9.0
 10
41.665306240148304
 20
8.2
 10
41.540999700692915
 20
7.4
 10
41.416033529996945
 20
6.6
 10
41.2906269611876
 20
5.8
 10
41.165
 20
5.0
  0
LWPOLYLINE
  5
39
330
17
100
AcDbEntity
  8
0
100
AcDbPolyline
 90
102
 70
1
 10
41.109
 20
5.0
 10
41.2346269611876
 20
5.8
 10
41.36003352999695
 20
6.6
 10
41.48499970069292
 20
7.4
 10
41.60930624014831
 20
8.2
 10
41.73273507245328
 20
9.0
 10
41.85506966149457
 20
9.8
 10
41.976095390833414
 20
10.600000000000001
 10
42.09559994021575
 20
11.4
 10
42.21337365805404
 20
12.2
 10
42.3292099292274
 20
13.0
 10
42.442905537554786
 20
13.8
 10
42.55426102230515
 20
14.6
 10
42.66308102811939
 20
15.4
 10
42.76917464773003
 20
16.200000000000003
 10
42.87235575687742
 20
17.0
 10
42.972443340834936
 20
17.8
 10
43.06926181197032
 20
18.6
 10
43.16264131778607
 20
19.4
 10
43.25241803889841
 20
20.2
 10
43.338434476432184
 20
21.0
 10
43.42053972832737
 20
21.8
 10
43.49858975407259
 20
22.6
 10
43.57244762740111
 20
23.400000000000002
 10
43.641983776506045
 20
24.2
 10
43.70707621135332
 20
25.0
 10
43.767610737693644
 20
25.8
 10
43.823481157398064
 20
26.6
 10
43.874589454765506
 20
27.400000000000002
 10
43.920845968475675
 20
28.2
 10
43.96216954888546
 20
29.0
 10
43.99848770039298
 20
29.8
 10
44.02973670861948
 20
30.6
 10
44.05586175218607
 20
31.400000000000002
 10
44.076816998888965
 20
32.2
 10
44.09256568610482
 20
33.0
 10
44.10308018528482
 20
33.8
 10
44.10834205042454
 20
34.6
 10
44.10834205042454
 20
35.4
 10
44.10308018528482
 20
36.2
 10
44.09256568610482
 20
37.0
 10
44.076816998888965
 20
37.8
 10
44.05586175218607
 20
38.6
 10
44.02973670861948
 20
39.4
 10
43.99848770039298
 20
40.2
 10
43.96216954888546
 20
41.0
 10
43.920845968475675
 20
41.800000000000004
 10
43.874589454765506
 20
42.599999999999994
 10
43.823481157398064
 20
43.4
 10
43.767610737693644
 20
44.2
 10
43.70707621135332
 20
45.0
 10
44.952076211353315
 20
45.0
 10
45.01261073769364
 20
44.2
 10
45.06848115739806
 20
43.4
 10
45.1195894547655
 20
42.599999999999994
 10
45.16584596847567
 20
41.800000000000004
 10
45.20716954888546
 20
41.0
 10
45.243487700392976
 20
40.2
 10
45.27473670861948
 20
39.4
 10
45.300861752186066
 20
38.6
 10
45.32181699888896
 20
37.8
 10
45.33756568610482
 20
37.0
 10
45.348080185284815
 20
36.2
 10
45.35334205042454
 20
35.4
 10
45.35334205042454
 20
34.6
 10
45.348080185284815
 20
33.8
 10
45.33756568610482
 20
33.0
 10
45.32181699888896
 20
32.2
 10
45.300861752186066
 20
31.400000000000002
 10
45.27473670861948
 20
30.6
 10
45.243487700392976
 20
29.8
 10
45.20716954888546
 20
29.0
 10
45.16584596847567
 20
28.2
 10
45.1195894547655
 20
27.400000000000002
 10
45.06848115739806
 20
26.6
 10
45.01261073769364
 20
25.8
 10
44.952076211353315
 20
25.0
 10
44.88698377650604
 20
24.2
 10
44.81744762740111
 20
23.400000000000002
 10
44.74358975407259
 20
22.6
 10
44.66553972832737
 20
21.8
 10
44.58343447643218
 20
21.0
 10
44.49741803889841
 20
20.2
 10
44.407641317786066
 20
19.4
 10
44.31426181197032
 20
18.6
 10
44.21744334083493
 20
17.8
 10
44.117355756877416
 20
17.0
 10
44.01417464773003
 20
16.200000000000003
 10
43.90808102811939
 20
15.4
 10
43.799261022305146
 20
14.6
 10
43.687905537554784
 20
13.8
 10
43.5742099292274
 20
13.0
 10
43.458373658054036
 20
12.2
 10
43.340599940215746
 20
11.4
 10
43.22109539083341
 20
10.600000000000001
 10
43.100069661494565
 20
9.8
 10
42.97773507245328
 20
9.0
 10
42.854306240148304
 20
8.2
 10
42.729999700692915
 20
7.4
 10
42.605033529996945
 20
6.6
 10
42.4796269611876
 20
5.8
 10
42.354
 20
5.0
  0
LWPOLYLINE
  5
3A
330
17
100
AcDbEntity
  8
0
100
AcDbPolyline
 90
102
 70
1
 10
44.900000000000006
 20
5.0
 10
45.025626961187605
 20
5.8
 10
45.15103352999695
 20
6.6
 10
45.27599970069292
 20
7.4
 10
45.40030624014831
 20
8.2
 10
45.523735072453285
 20
9.0
 10
45.64606966149457
 20
9.8
 10
45.76709539083342
 20
10.600000000000001
 10
45.88659994021575
 20
11.4
 10
46.00437365805404
 20
12.2
 10
46.12020992922741
 20
13.0
 10
46.23390553755479
 20
13.8
 10
46.34526102230515
 20
14.6
 10
46.4540810281194
 20
15.4
 10
46.56017464773004
 20
16.200000000000003
 10
46.66335575687742
 20
17.0
 10
46.76344334083494
 20
17.8
 10
46.860261811970325
 20
18.6
 10
46.95364131778607
 20
19.4
 10
47.043418038898416
 20
20.2
 10
47.12943447643219
 20
21.0
 10
47.211539728327374
 20
21.8
 10
47.289589754072594
 20
22.6
 10
47.363447627401115
 20
23.400000000000002
 10
47.43298377650605
 20
24.2
 10
47.49807621135332
 20
25.0
 10
47.55861073769365
 20
25.8
 10
47.61448115739807
 20
26.6
 10
47.66558945476551
 20
27.400000000000002
 10
47.71184596847568
 20
28.2
 10
47.75316954888547
 20
29.0
 10
47.78948770039298
 20
29.8
 10
47.820736708619485
 20
30.6
 10
47.84686175218607
 20
31.400000000000002
 10
47.86781699888897
 20
32.2
 10
47.883565686104824
 20
33.0
 10
47.89408018528482
 20
33.8
 10
47.89934205042454
 20
34.6
 10
47.89934205042454
 20
35.4
 10
47.89408018528482
 20
36.2
 10
47.883565686104824
 20
37.0
 10
47.86781699888897
 20
37.8
 10
47.84686175218607
 20
38.6
 10
47.820736708619485
 20
39.4
 10
47.78948770039298
 20
40.2
 10
47.75316954888547
 20
41.0
 10
47.71184596847568
 20
41.800000000000004
 10
47.66558945476551
 20
42.599999999999994
 10
47.61448115739807
 20
43.4
 10
47.55861073769365
 20
44.2
 10
47.49807621135332
 20
45.0
 10
48.74307621135332
 20
45.0
 10
48.803610737693646
 20
44.2
 10
48.859481157398065
 20
43.4
 10
48.91058945476551
 20
42.599999999999994
 10
48.956845968475676
 20
41.800000000000004
 10
48.998169548885464
 20
41.0
 10
49.03448770039298
 20
40.2
 10
49.06573670861948
 20
39.4
 10
49.09186175218607
 20
38.6
 10
49.11281699888897
 20
37.8
 10
49.12856568610482
 20
37.0
 10
49.13908018528482
 20
36.2
 10
49.14434205042454
 20
35.4
 10
49.14434205042454
 20
34.6
 10
49.13908018528482
 20
33.8
 10
49.12856568610482
 20
33.0
 10
49.11281699888897
 20
32.2
 10
49.09186175218607
 20
31.400000000000002
 10
49.06573670861948
 20
30.6
 10
49.03448770039298
 20
29.8
 10
48.998169548885464
 20
29.0
 10
48.956845968475676
 20
28.2
 10
48.91058945476551
 20
27.400000000000002
 10
48.859481157398065
 20
26.6
 10
48.803610737693646
 20
25.8
 10
48.74307621135332
 20
25.0
 10
48.677983776506046
 20
24.2
 10
48.60844762740111
 20
23.400000000000002
 10
48.53458975407259
 20
22.6
 10
48.45653972832737
 20
21.8
 10
48.374434476432185
 20
21.0
 10
48.28841803889841
 20
20.2
 10
48.19864131778607
 20
19.4
 10
48.10526181197032
 20
18.6
 10
48.00844334083494
 20
17.8
 10
47.90835575687742
 20
17.0
 10
47.805174647730034
 20
16.200000000000003
 10
47.699081028119394
 20
15.4
 10
47.59026102230515
 20
14.6
 10
47.47890553755479
 20
13.8
 10
47.365209929227404
 20
13.0
 10
47.24937365805404
 20
12.2
 10
47.13159994021575
 20
11.4
 10
47.012095390833416
 20
10.600000000000001
 10
46.89106966149457
 20
9.8
 10
46.76873507245328
 20
9.0
 10
46.64530624014831
 20
8.2
 10
46.52099970069292
 20
7.4
 10
46.39603352999695
 20
6.6
 10
46.2706269611876
 20
5.8
 10
46.145
 20
5.0
  0
LWPOLYLINE
  5
3B
330
17
100
AcDbEntity
  8
0
100
AcDbPolyline
 90
102
 70
1
 10
46.089000000000006
 20
5.0
 10
46.214626961187605
 20
5.8
 10
46.34003352999695
 20
6.6
 10
46.46499970069292
 20
7.4
 10
46.58930624014831
 20
8.2
 10
46.712735072453285
 20
9.0
 10
46.83506966149457
 20
9.8
 10
46.95609539083342
 20
10.600000000000001
 10
47.07559994021575
 20
11.4
 10
47.19337365805404
 20
12.2
 10
47.30920992922741
 20
13.0
 10
47.42290553755479
 20
13.8
 10
47.53426102230515
 20
14.6
 10
47.6430810281194
 20
15.4
 10
47.74917464773004
 20
16.200000000000003
 10
47.85235575687742
 20
17.0
 10
47.95244334083494
 20
17.8
 10
48.049261811970325
 20
18.6
 10
48.14264131778607
 20
19.4
 10
48.232418038898416
 20
20.2
 10
48.31843447643219
 20
21.0
 10
48.400539728327374
 20
21.8
 10
48.478589754072594
 20
22.6
 10
48.552447627401115
 20
23.400000000000002
 10
48.62198377650605
 20
24.2
 10
48.68707621135332
 20
25.0
 10
48.74761073769365
 20
25.8
 10
48.80348115739807
 20
26.6
 10
48.85458945476551
 20
27.400000000000002
 10
48.90084596847568
 20
28.2
 10
48.94216954888547
 20
29.0
 10
48.97848770039298
 20
29.8
 10
49.009736708619485
 20
30.6
 10
49.03586175218607
 20
31.400000000000002
 10
49.05681699888897
 20
32.2
 10
49.072565686104824
 20
33.0
 10
49.08308018528482
 20
33.8
 10
49.088342050424544
 20
34.6
 10
49.088342050424544
 20
35.4
 10
49.08308018528482
 20
36.2
 10
49.072565686104824
 20
37.0
 10
49.05681699888897
 20
37.8
 10
49.03586175218607
 20
38.6
 10
49.009736708619485
 20
39.4
 10
48.97848770039298
 20
40.2
 10
48.94216954888547
 20
41.0
 10
48.90084596847568
 20
41.800000000000004
 10
48.85458945476551
 20
42.599999999999994
 10
48.80348115739807
 20
43.4
 10
48.74761073769365
 20
44.2
 10
48.68707621135332
 20
45.0
 10
49.93207621135332
 20
45.0
 10
49.992610737693646
 20
44.2
 10
50.048481157398065
 20
43.4
 10
50.09958945476551
 20
42.599999999999994
 10
50.145845968475676
 20
41.800000000000004
 10
50.187169548885464
 20
41.0
 10
50.22348770039298
 20
40.2
 10
50.25473670861948
 20
39.4
 10
50.28086175218607
 20
38.6
 10
50.30181699888897
 20
37.8
 10
50.31756568610482
 20
37.0
 10
50.32808018528482
 20
36.2
 10
50.33334205042454
 20
35.4
 10
50.33334205042454
 20
34.6
 10
50.32808018528482
 20
33.8
 10
50.31756568610482
 20
33.0
 10
50.30181699888897
 20
32.2
 10
50.28086175218607
 20
31.400000000000002
 10
50.25473670861948
 20
30.6
 10
50.22348770039298
 20
29.8
 10
50.187169548885464
 20
29.0
 10
50.145845968475676
 20
28.2
 10
50.09958945476551
 20
27.400000000000002
 10
50.048481157398065
 20
26.6
 10
49.992610737693646
 20
25.8
 10
49.93207621135332
 20
25.0
 10
49.866983776506046
 20
24.2
 10
49.79744762740111
 20
23.400000000000002
 10
49.72358975407259
 20
22.6
 10
49.64553972832737
 20
21.8
 10
49.563434476432185
 20
21.0
 10
49.47741803889841
 20
20.2
 10
49.38764131778607
 20
19.4
 10
49.29426181197032
 20
18.6
 10
49.19744334083494
 20
17.8
 10
49.09735575687742
 20
17.0
 10
48.994174647730034
 20
16.200000000000003
 10
48.888081028119394
 20
15.4
 10
48.77926102230515
 20
14.6
 10
48.66790553755479
 20
13.8
 10
48.554209929227405
 20
13.0
 10
48.43837365805404
 20
12.2
 10
48.32059994021575
 20
11.4
 10
48.201095390833416
 20
10.600000000000001
 10
48.08006966149457
 20
9.8
 10
47.95773507245328
 20
9.0
 10
47.83430624014831
 20
8.2
 10
47.70999970069292
 20
7.4
 10
47.58503352999695
 20
6.6
 10
47.4596269611876
 20
5.8
 10
47.334
 20
5.0
  0
LWPOLYLINE
  5
3C
330
17
100
AcDbEntity
  8
0
100
AcDbPolyline
 90
102
 70
1
 10
49.88
 20
5.0
 10
50.0056269611876
 20
5.8
 10
50.13103352999695
 20
6.6
 10
50.25599970069292
 20
7.4
 10
50.38030624014831
 20
8.2
 10
50.50373507245328
 20
9.0
 10
50.62606966149457
 20
9.8
 10
50.747095390833415
 20
10.600000000000001
 10
50.86659994021575
 20
11.4
 10
50.98437365805404
 20
12.2
 10
51.100209929227404
 20
13.0
 10
51.21390553755479
 20
13.8
 10
51.32526102230515
 20
14.6
 10
51.434081028119394
 20
15.4
 10
51.54017464773003
 20
16.200000000000003
 10
51.64335575687742
 20
17.0
 10
51.743443340834936
 20
17.8
 10
51.84026181197032
 20
18.6
 10
51.93364131778607
 20
19.4
 10
52.02341803889841
 20
20.2
 10
52.109434476432185
 20
21.0
 10
52.19153972832737
 20
21.8
 10
52.26958975407259
 20
22.6
 10
52.34344762740111
 20
23.400000000000002
 10
52.412983776506046
 20
24.2
 10
52.47807621135332
 20
25.0
 10
52.538610737693645
 20
25.8
 10
52.594481157398064
 20
26.6
 10
52.645589454765506
 20
27.400000000000002
 10
52.691845968475675
 20
28.2
 10
52.73316954888546
 20
29.0
 10
52.76948770039298
 20
29.8
 10
52.80073670861948
 20
30.6
 10
52.82686175218607
 20
31.400000000000002
 10
52.847816998888966
 20
32.2
 10
52.86356568610482
 20
33.0
 10
52.87408018528482
 20
33.8
 10
52.87934205042454
 20
34.6
 10
52.87934205042454
 20
35.4
 10
52.87408018528482
 20
36.2
 10
52.86356568610482
 20
37.0
 10
52.847816998888966
 20
37.8
 10
52.82686175218607
 20
38.6
 10
52.80073670861948
 20
39.4
 10
52.76948770039298
 20
40.2
 10
52.73316954888546
 20
41.0
 10
52.691845968475675
 20
41.800000000000004
 10
52.645589454765506
 20
42.599999999999994
 10
52.594481157398064
 20
43.4
 10
52.538610737693645
 20
44.2
 10
52.47807621135332
 20
45.0
 10
53.723076211353316
 20
45.0
 10
53.78361073769364
 20
44.2
 10
53.83948115739806
 20
43.4
 10
53.890589454765504
 20
42.599999999999994
 10
53.93684596847567
 20
41.800000000000004
 10
53.97816954888546
 20
41.0
 10
54.014487700392976
 20
40.2
 10
54.04573670861948
 20
39.4
 10
54.07186175218607
 20
38.6
 10
54.092816998888964
 20
37.8
 10
54.10856568610482
 20
37.0
 10
54.119080185284815
 20
36.2
 10
54.12434205042454
 20
35.4
 10
54.12434205042454
 20
34.6
 10
54.119080185284815
 20
33.8
 10
54.10856568610482
 20
33.0
 10
54.092816998888964
 20
32.2
 10
54.07186175218607
 20
31.400000000000002
 10
54.04573670861948
 20
30.6
 10
54.014487700392976
 20
29.8
 10
53.97816954888546
 20
29.0
 10
53.93684596847567
 20
28.2
 10
53.890589454765504
 20
27.400000000000002
 10
53.83948115739806
 20
26.6
 10
53.78361073769364
 20
25.8
 10
53.723076211353316
 20
25.0
 10
53.65798377650604
 20
24.2
 10
53.58844762740111
 20
23.400000000000002
 10
53.51458975407259
 20
22.6
 10
53.43653972832737
 20
21.8
 10
53.35443447643218
 20
21.0
 10
53.26841803889841
 20
20.2
 10
53.17864131778607
 20
19.4
 10
53.08526181197032
 20
18.6
 10
52.988443340834934
 20
17.8
 10
52.88835575687742
 20
17.0
 10
52.78517464773003
 20
16.200000000000003
 10
52.67908102811939
 20
15.4
 10
52.57026102230515
 20
14.6
 10
52.458905537554784
 20
13.8
 10
52.3452099292274
 20
13.0
 10
52.22937365805404
 20
12.2
 10
52.11159994021575
 20
11.4
 10
51.99209539083341
 20
10.600000000000001
 10
51.871069661494566
 20
9.8
 10
51.74873507245328
 20
9.0
 10
51.625306240148305
 20
8.2
 10
51.500999700692915
 20
7.4
 10
51.376033529996946
 20
6.6
 10
51.2506269611876
 20
5.8
 10
51.125
 20
5.0
  0
LWPOLYLINE
  5
3D
330
17
100
AcDbEntity
  8
0
100
AcDbPolyline
 90
102
 70
1
 10
51.069
 20
5.0
 10
51.1946269611876
 20
5.8
 10
51.32003352999695
 20
6.6
 10
51.44499970069292
 20
7.4
 10
51.56930624014831
 20
8.2
 10
51.69273507245328
 20
9.0
 10
51.81506966149457
 20
9.8
 10
51.936095390833415
 20
10.600000000000001
 10
52.05559994021575
 20
11.4
 10
52.17337365805404
 20
12.2
 10
52.289209929227404
 20
13.0
 10
52.40290553755479
 20
13.8
 10
52.51426102230515
 20
14.6
 10
52.623081028119394
 20
15.4
 10
52.729174647730034
 20
16.200000000000003
 10
52.83235575687742
 20
17.0
 10
52.932443340834936
 20
17.8
 10
53.02926181197032
 20
18.6
 10
53.12264131778607
 20
19.4
 10
53.21241803889841
 20
20.2
 10
53.298434476432185
 20
21.0
 10
53.38053972832737
 20
21.8
 10
53.45858975407259
 20
22.6
 10
53.53244762740111
 20
23.400000000000002
 10
53.601983776506046
 20
24.2
 10
53.66707621135332
 20
25.0
 10
53.727610737693645
 20
25.8
 10
53.783481157398064
 20
26.6
 10
53.834589454765506
 20
27.400000000000002
 10
53.880845968475676
 20
28.2
 10
53.92216954888546
 20
29.0
 10
53.95848770039298
 20
29.8
 10
53.98973670861948
 20
30.6
 10
54.01586175218607
 20
31.400000000000002
 10
54.036816998888966
 20
32.2
 10
54.05256568610482
 20
33.0
 10
54.06308018528482
 20
33.8
 10
54.06834205042454
 20
34.6
 10
54.06834205042454
 20
35.4
 10
54.06308018528482
 20
36.2
 10
54.05256568610482
 20
37.0
 10
54.036816998888966
 20
37.8
 10
54.01586175218607
 20
38.6
 10
53.98973670861948
 20
39.4
 10
53.95848770039298
 20
40.2
 10
53.92216954888546
 20
41.0
 10
53.880845968475676
 20
41.800000000000004
 10
53.834589454765506
 20
42.599999999999994
 10
53.783481157398064
 20
43.4
 10
53.727610737693645
 20
44.2
 10
53.66707621135332
 20
45.0
 10
54.912076211353316
 20
45.0
 10
54.97261073769364
 20
44.2
 10
55.02848115739806
 20
43.4
 10
55.079589454765504
 20
42.599999999999994
 10
55.12584596847567
 20
41.800000000000004
 10
55.16716954888546
 20
41.0
 10
55.20348770039298
 20
40.2
 10
55.23473670861948
 20
39.4
 10
55.26086175218607
 20
38.6
 10
55.281816998888964
 20
37.8
 10
55.29756568610482
 20
37.0
 10
55.308080185284815
 20
36.2
 10
55.31334205042454
 20
35.4
 10
55.31334205042454
 20
34.6
 10
55.308080185284815
 20
33.8
 10
55.29756568610482
 20
33.0
 10
55.281816998888964
 20
32.2
 10
55.26086175218607
 20
31.400000000000002
 10
55.23473670861948
 20
30.6
 10
55.20348770039298
 20
29.8
 10
55.16716954888546
 20
29.0
 10
55.12584596847567
 20
28.2
 10
55.079589454765504
 20
27.400000000000002
 10
55.02848115739806
 20
26.6
 10
54.97261073769364
 20
25.8
 10
54.912076211353316
 20
25.0
 10
54.84698377650604
 20
24.2
 10
54.77744762740111
 20
23.400000000000002
 10
54.70358975407259
 20
22.6
 10
54.62553972832737
 20
21.8
 10
54.54343447643218
 20
21.0
 10
54.45741803889841
 20
20.2
 10
54.36764131778607
 20
19.4
 10
54.27426181197032
 20
18.6
 10
54.177443340834934
 20
17.8
 10
54.07735575687742
 20
17.0
 10
53.97417464773003
 20
16.200000000000003
 10
53.86808102811939
 20
15.4
 10
53.75926102230515
 20
14.6
 10
53.647905537554784
 20
13.8
 10
53.5342099292274
 20
13.0
 10
53.41837365805404
 20
12.2
 10
53.30059994021575
 20
11.4
 10
53.18109539083341
 20
10.600000000000001
 10
53.060069661494566
 20
9.8
 10
52.93773507245328
 20
9.0
 10
52.814306240148305
 20
8.2
 10
52.689999700692915
 20
7.4
 10
52.565033529996946
 20
6.6
 10
52.4396269611876
 20
5.8
 10
52.314
 20
5.0
  0
LWPOLYLINE
  5
3E
330
17
100
AcDbEntity
  8
0
100
AcDbPolyline
 90
102
 70
1
 10
54.86
 20
5.0
 10
54.9856269611876
 20
5.8
 10
55.111033529996945
 20
6.6
 10
55.235999700692915
 20
7.4
 10
55.360306240148304
 20
8.2
 10
55.48373507245328
 20
9.0
 10
55.606069661494566
 20
9.8
 10
55.72709539083341
 20
10.600000000000001
 10
55.84659994021575
 20
11.4
 10
55.964373658054036
 20
12.2
 10
56.0802099292274
 20
13.0
 10
56.193905537554784
 20
13.8
 10
56.305261022305146
 20
14.6
 10
56.41408102811939
 20
15.4
 10
56.52017464773003
 20
16.200000000000003
 10
56.623355756877416
 20
17.0
 10
56.72344334083493
 20
17.8
 10
56.82026181197032
 20
18.6
 10
56.913641317786066
 20
19.4
 10
57.00341803889841
 20
20.2
 10
57.08943447643218
 20
21.0
 10
57.17153972832737
 20
21.8
 10
57.24958975407259
 20
22.6
 10
57.32344762740111
 20
23.400000000000002
 10
57.39298377650604
 20
24.2
 10
57.458076211353315
 20
25.0
 10
57.51861073769364
 20
25.8
 10
57.57448115739806
 20
26.6
 10
57.6255894547655
 20
27.400000000000002
 10
57.67184596847567
 20
28.2
 10
57.71316954888546
 20
29.0
 10
57.749487700392976
 20
29.8
 10
57.78073670861948
 20
30.6
 10
57.806861752186066
 20
31.400000000000002
 10
57.82781699888896
 20
32.2
 10
57.84356568610482
 20
33.0
 10
57.854080185284815
 20
33.8
 10
57.85934205042454
 20
34.6
 10
57.85934205042454
 20
35.4
 10
57.854080185284815
 20
36.2
 10
57.84356568610482
 20
37.0
 10
57.82781699888896
 20
37.8
 10
57.806861752186066
 20
38.6
 10
57.78073670861948
 20
39.4
 10
57.749487700392976
 20
40.2
 10
57.71316954888546
 20
41.0
 10
57.67184596847567
 20
41.800000000000004
 10
57.6255894547655
 20
42.599999999999994
 10
57.57448115739806
 20
43.4
 10
57.51861073769364
 20
44.2
 10
57.458076211353315
 20
45.0
 10
58.70307621135331
 20
45.0
 10
58.76361073769364
 20
44.2
 10
58.81948115739806
 20
43.4
 10
58.8705894547655
 20
42.599999999999994
 10
58.91684596847567
 20
41.800000000000004
 10
58.95816954888546
 20
41.0
 10
58.99448770039297
 20
40.2
 10
59.025736708619476
 20
39.4
 10
59.05186175218606
 20
38.6
 10
59.07281699888896
 20
37.8
 10
59.088565686104815
 20
37.0
 10
59.09908018528481
 20
36.2
 10
59.104342050424535
 20
35.4
 10
59.104342050424535
 20
34.6
 10
59.09908018528481
 20
33.8
 10
59.088565686104815
 20
33.0
 10
59.07281699888896
 20
32.2
 10
59.05186175218606
 20
31.400000000000002
 10
59.025736708619476
 20
30.6
 10
58.99448770039297
 20
29.8
 10
58.95816954888546
 20
29.0
 10
58.91684596847567
 20
28.2
 10
58.8705894547655
 20
27.400000000000002
 10
58.81948115739806
 20
26.6
 10
58.76361073769364
 20
25.8
 10
58.70307621135331
 20
25.0
 10
58.63798377650604
 20
24.2
 10
58.568447627401106
 20
23.400000000000002
 10
58.494589754072585
 20
22.6
 10
58.416539728327365
 20
21.8
 10
58.33443447643218
 20
21.0
 10
58.24841803889841
 20
20.2
 10
58.15864131778606
 20
19.4
 10
58.065261811970316
 20
18.6
 10
57.96844334083493
 20
17.8
 10
57.86835575687741
 20
17.0
 10
57.76517464773003
 20
16.200000000000003
 10
57.65908102811939
 20
15.4
 10
57.55026102230514
 20
14.6
 10
57.43890553755478
 20
13.8
 10
57.3252099292274
 20
13.0
 10
57.209373658054034
 20
12.2
 10
57.091599940215744
 20
11.4
 10
56.97209539083341
 20
10.600000000000001
 10
56.85106966149456
 20
9.8
 10
56.728735072453276
 20
9.0
 10
56.6053062401483
 20
8.2
 10
56.48099970069291
 20
7.4
 10
56.35603352999694
 20
6.6
 10
56.230626961187596
 20
5.8
 10
56.105
 20
5.0
  0
LWPOLYLINE
  5
3F
330
17
100
AcDbEntity
  8
0
100
AcDbPolyline
 90
102
 70
1
 10
56.049
 20
5.0
 10
56.1746269611876
 20
5.8
 10
56.300033529996945
 20
6.6
 10
56.424999700692915
 20
7.4
 10
56.549306240148304
 20
8.2
 10
56.67273507245328
 20
9.0
 10
56.795069661494566
 20
9.8
 10
56.91609539083341
 20
10.600000000000001
 10
57.03559994021575
 20
11.4
 10
57.153373658054036
 20
12.2
 10
57.2692099292274
 20
13.0
 10
57.382905537554784
 20
13.8
 10
57.494261022305146
 20
14.6
 10
57.60308102811939
 20
15.4
 10
57.70917464773003
 20
16.200000000000003
 10
57.812355756877416
 20
17.0
 10
57.91244334083493
 20
17.8
 10
58.00926181197032
 20
18.6
 10
58.102641317786066
 20
19.4
 10
58.19241803889841
 20
20.2
 10
58.27843447643218
 20
21.0
 10
58.36053972832737
 20
21.8
 10
58.43858975407259
 20
22.6
 10
58.51244762740111
 20
23.400000000000002
 10
58.58198377650604
 20
24.2
 10
58.647076211353316
 20
25.0
 10
58.70761073769364
 20
25.8
 10
58.76348115739806
 20
26.6
 10
58.8145894547655
 20
27.400000000000002
 10
58.86084596847567
 20
28.2
 10
58.90216954888546
 20
29.0
 10
58.938487700392976
 20
29.8
 10
58.96973670861948
 20
30.6
 10
58.995861752186066
 20
31.400000000000002
 10
59.01681699888896
 20
32.2
 10
59.03256568610482
 20
33.0
 10
59.043080185284815
 20
33.8
 10
59.04834205042454
 20
34.6
 10
59.04834205042454
 20
35.4
 10
59.043080185284815
 20
36.2
 10
59.03256568610482
 20
37.0
 10
59.01681699888896
 20
37.8
 10
58.995861752186066
 20
38.6
 10
58.96973670861948
 20
39.4
 10
58.938487700392976
 20
40.2
 10
58.90216954888546
 20
41.0
 10
58.86084596847567
 20
41.800000000000004
 10
58.8145894547655
 20
42.599999999999994
 10
58.76348115739806
 20
43.4
 10
58.70761073769364
 20
44.2
 10
58.647076211353316
 20
45.0
 10
59.89207621135331
 20
45.0
 10
59.95261073769364
 20
44.2
 10
60.00848115739806
 20
43.4
 10
60.0595894547655
 20
42.599999999999994
 10
60.10584596847567
 20
41.800000000000004
 10
60.14716954888546
 20
41.0
 10
60.18348770039297
 20
40.2
 10
60.214736708619476
 20
39.4
 10
60.24086175218606
 20
38.6
 10
60.26181699888896
 20
37.8
 10
60.277565686104815
 20
37.0
 10
60.28808018528481
 20
36.2
 10
60.293342050424535
 20
35.4
 10
60.293342050424535
 20
34.6
 10
60.28808018528481
 20
33.8
 10
60.277565686104815
 20
33.0
 10
60.26181699888896
 20
32.2
 10
60.24086175218606
 20
31.400000000000002
 10
60.214736708619476
 20
30.6
 10
60.18348770039297
 20
29.8
 10
60.14716954888546
 20
29.0
 10
60.10584596847567
 20
28.2
 10
60.0595894547655
 20
27.400000000000002
 10
60.00848115739806
 20
26.6
 10
59.95261073769364
 20
25.8
 10
59.89207621135331
 20
25.0
 10
59.82698377650604
 20
24.2
 10
59.757447627401106
 20
23.400000000000002
 10
59.683589754072585
 20
22.6
 10
59.605539728327365
 20
21.8
 10
59.52343447643218
 20
21.0
 10
59.43741803889841
 20
20.2
 10
59.347641317786064
 20
19.4
 10
59.254261811970316
 20
18.6
 10
59.15744334083493
 20
17.8
 10
59.05735575687741
 20
17.0
 10
58.95417464773003
 20
16.200000000000003
 10
58.84808102811939
 20
15.4
 10
58.73926102230514
 20
14.6
 10
58.62790553755478
 20
13.8
 10
58.5142099292274
 20
13.0
 10
58.398373658054034
 20
12.2
 10
58.280599940215744
 20
11.4
 10
58.16109539083341
 20
10.600000000000001
 10
58.04006966149456
 20
9.8
 10
57.917735072453276
 20
9.0
 10
57.7943062401483
 20
8.2
 10
57.66999970069291
 20
7.4
 10
57.54503352999694
 20
6.6
 10
57.419626961187596
 20
5.8
 10
57.294
 20
5.0
  0
ENDSEC
  0
SECTION
  2
OBJECTS
  0
DICTIONARY
  5
A
330
0
100
AcDbDictionary
281
1
  3
ACAD_COLOR
350
B
  3
ACAD_GROUP
350
C
  3
ACAD_LAYOUT
350
D
  3
ACAD_MATERIAL
350
E
  3
ACAD_MLEADERSTYLE
350
F
  3
ACAD_MLINESTYLE
350
10
  3
ACAD_PLOTSETTINGS
350
11
  3
ACAD_PLOTSTYLENAME
350
12
  3
ACAD_SCALELIST
350
14
  3
ACAD_TABLESTYLE
350
15
  3
ACAD_VISUALSTYLE
350
16
  3
EZDXF_META
350
2D
  0
DICTIONARY
  5
B
330
A
100
AcDbDictionary
281
1
  0
DICTIONARY
  5
C
330
A
100
AcDbDictionary
281
1
  0
DICTIONARY
  5
D
330
A
100
AcDbDictionary
281
1
  3
Model
350
1A
  3
Layout1
350
1E
  0
DICTIONARY
  5
E
330
A
100
AcDbDictionary
281
1
  3
ByBlock
350
1F
  3
ByLayer
350
20
  3
Global
350
21
  0
DICTIONARY
  5
F
330
A
100
AcDbDictionary
281
1
  3
Standard
350
2C
  0
DICTIONARY
  5
10
330
A
100
AcDbDictionary
281
1
  3
Standard
350
22
  0
DICTIONARY
  5
11
330
A
100
AcDbDictionary
281
1
  0
ACDBDICTIONARYWDFLT
  5
12
330
A
100
AcDbDictionary
281
1
  3
Normal
350
13
100
AcDbDictionaryWithDefault
340
13
  0
ACDBPLACEHOLDER
  5
13
330
12
  0
DICTIONARY
  5
14
330
A
100
AcDbDictionary
281
1
  0
DICTIONARY
  5
15
330
A
100
AcDbDictionary
281
1
  0
DICTIONARY
  5
16
330
A
100
AcDbDictionary
281
1
  0
LAYOUT
  5
1A
330
D
100
AcDbPlotSettings
  1

  4
A3
  6

 40
7.5
 41
20.0
 42
7.5
 43
20.0
 44
420.0
 45
297.0
 46
0.0
 47
0.0
 48
0.0
 49
0.0
140
0.0
141
0.0
142
1.0
143
1.0
 70
1024
 72
1
 73
0
 74
5
  7

 75
16
 76
0
 77
2
 78
300
147
1.0
148
0.0
149
0.0
100
AcDbLayout
  1
Model
 70
1
 71
0
 10
0.0
 20
0.0
 11
420.0
 21
297.0
 12
0.0
 22
0.0
 32
0.0
 14
1e+20
 24
1e+20
 34
1e+20
 15
-1e+20
 25
-1e+20
 35
-1e+20
146
0.0
 13
0.0
 23
0.0
 33
0.0
 16
1.0
 26
0.0
 36
0.0
 17
0.0
 27
1.0
 37
0.0
 76
1
330
17
  0
LAYOUT
  5
1E
330
D
100
AcDbPlotSettings
  1

  4
A3
  6

 40
7.5
 41
20.0
 42
7.5
 43
20.0
 44
420.0
 45
297.0
 46
0.0
 47
0.0
 48
0.0
 49
0.0
140
0.0
141
0.0
142
1.0
143
1.0
 70
0
 72
1
 73
0
 74
5
  7

 75
16
 76
0
 77
2
 78
300
147
1.0
148
0.0
149
0.0
100
AcDbLayout
  1
Layout1
 70
1
 71
1
 10
0.0
 20
0.0
 11
420.0
 21
297.0
 12
0.0
 22
0.0
 32
0.0
 14
1e+20
 24
1e+20
 34
1e+20
 15
-1e+20
 25
-1e+20
 35
-1e+20
146
0.0
 13
0.0
 23
0.0
 33
0.0
 16
1.0
 26
0.0
 36
0.0
 17
0.0
 27
1.0
 37
0.0
 76
1
330
1B
  0
MATERIAL
  5
1F
102
{ACAD_REACTORS
330
E
102
}
330
E
100
AcDbMaterial
  1
ByBlock
  2

 70
0
 40
1.0
 71
1
 41
1.0
 91
-1023410177
 42
1.0
 72
1
  3

 73
1
 74
1
 75
1
 44
0.5
 73
0
 45
1.0
 46
1.0
 77
1
  4

 78
1
 79
1
170
1
 48
1.0
171
1
  6

172
1
173
1
174
1
140
1.0
141
1.0
175
1
  7

176
1
177
1
178
1
143
1.0
179
1
  8

270
1
271
1
272
1
145
1.0
146
1.0
273
1
  9

274
1
275
1
276
1
 42
1.0
 72
1
  3

 73
1
 74
1
 75
1
 94
63
  0
MATERIAL
  5
20
102
{ACAD_REACTORS
330
E
102
}
330
E
100
AcDbMaterial
  1
ByLayer
  2

 70
0
 40
1.0
 71
1
 41
1.0
 91
-1023410177
 42
1.0
 72
1
  3

 73
1
 74
1
 75
1
 44
0.5
 73
0
 45
1.0
 46
1.0
 77
1
  4

 78
1
 79
1
170
1
 48
1.0
171
1
  6

172
1
173
1
174
1
140
1.0
141
1.0
175
1
  7

176
1
177
1
178
1
143
1.0
179
1
  8

270
1
271
1
272
1
145
1.0
146
1.0
273
1
  9

274
1
275
1
276
1
 42
1.0
 72
1
  3

 73
1
 74
1
 75
1
 94
63
  0
MATERIAL
  5
21
102
{ACAD_REACTORS
330
E
102
}
330
E
100
AcDbMaterial
  1
Global
  2

 70
0
 40
1.0
 71
1
 41
1.0
 91
-1023410177
 42
1.0
 72
1
  3

 73
1
 74
1
 75
1
 44
0.5
 73
0
 45
1.0
 46
1.0
 77
1
  4

 78
1
 79
1
170
1
 48
1.0
171
1
  6

172
1
173
1
174
1
140
1.0
141
1.0
175
1
  7

176
1
177
1
178
1
143
1.0
179
1
  8

270
1
271
1
272
1
145
1.0
146
1.0
273
1
  9

274
1
275
1
276
1
 42
1.0
 72
1
  3

 73
1
 74
1
 75
1
 94
63
  0
MLINESTYLE
  5
22
102
{ACAD_REACTORS
330
10
102
}
330
10
100
AcDbMlineStyle
  2
Standard
 70
0
  3

 62
256
 51
90.0
 52
90.0
 71
2
 49
0.5
 62
256
  6
BYLAYER
 49
-0.5
 62
256
  6
BYLAYER
  0
MLEADERSTYLE
  5
2C
102
{ACAD_REACTORS
330
F
102
}
330
F
100
AcDbMLeaderStyle
179
2
170
2
171
1
172
0
 90
2
 40
0.0
 41
0.0
173
1
 91
-1056964608
 92
-2
290
1
 42
2.0
291
1
 43
8.0
  3
Standard
 44
4.0
300

342
29
174
1
175
1
176
0
178
1
 93
-1056964608
 45
4.0
292
0
297
0
 46
4.0
 94
-1056964608
 47
1.0
 49
1.0
140
1.0
294
1
141
0.0
177
0
142
1.0
295
0
296
0
143
3.75
271
0
272
9
273
9
  0
DICTIONARY
  5
2D
330
A
100
AcDbDictionary
280
1
281
1
  3
CREATED_BY_EZDXF
350
2E
  3
WRITTEN_BY_EZDXF
350
42
  0
DICTIONARYVAR
  5
2E
330
2D
100
DictionaryVariables
280
0
  1
1.4.3 @ 2026-02-24T19:44:52.082989+00:00
  0
DICTIONARYVAR
  5
42
330
2D
100
DictionaryVariables
280
0
  1
1.4.3 @ 2026-02-24T19:44:52.110264+00:00
  0
ENDSEC
  0
EOF
